<?xml version="1.0" encoding="UTF-8"?>
<svg version="1.1" xmlns="http://www.w3.org/2000/svg" width="700" height="152">
<path d="M0 0 C0.66 0 1.32 0 2 0 C6.96867832 10.74353292 11.16644508 21.69845948 15.21386719 32.81958008 C18.12601925 40.77444144 21.24218847 48.60325388 24.66381836 56.3527832 C27 61.70209784 27 61.70209784 27 65 C27.77610498 62.00645224 28.39144973 59.04275136 29 56 C41.87 56 54.74 56 68 56 C68 37.85 68 19.7 68 1 C79.22 1 90.44 1 102 1 C103 9 103 9 102 15 C95.73 15 89.46 15 83 15 C83 19.29 83 23.58 83 28 C90.59885523 28.07416671 98.19749965 28.12861088 105.79663086 28.16479492 C108.38162913 28.17987962 110.96660182 28.20035002 113.55151367 28.22631836 C117.2674796 28.26271442 120.98310707 28.27972985 124.69921875 28.29296875 C125.85459641 28.30845261 127.00997406 28.32393646 128.20036316 28.33988953 C129.82147758 28.34022942 129.82147758 28.34022942 131.4753418 28.34057617 C132.89764351 28.35056892 132.89764351 28.35056892 134.34867859 28.36076355 C137.53035486 27.92783496 139.41234214 26.87039723 142 25 C143.07642709 23.11149645 143.07642709 23.11149645 143 21 C142.00974907 18.33393981 141.5722047 17.28610235 139 16 C136.89625004 15.84558791 134.78804881 15.75007361 132.6796875 15.68359375 C131.42285156 15.64169922 130.16601562 15.59980469 128.87109375 15.55664062 C127.55238281 15.51732422 126.23367188 15.47800781 124.875 15.4375 C123.53514249 15.39430488 122.19529844 15.35069027 120.85546875 15.30664062 C117.57042185 15.20029019 114.28529719 15.09826192 111 15 C110.80467039 13.2300132 110.61901118 11.45895721 110.4375 9.6875 C110.33308594 8.70136719 110.22867188 7.71523438 110.12109375 6.69921875 C110 4 110 4 111 1 C115.69557647 0.90045255 120.39052663 0.82821533 125.08691406 0.78027344 C126.68142408 0.76026947 128.27586178 0.73305699 129.87011719 0.69824219 C148.0008007 0.31248296 148.0008007 0.31248296 154.58984375 6.49072266 C158.62275941 10.82026219 158.91008676 16.07427897 159.1328125 21.7734375 C158.87897165 27.94027708 157.45161523 32.21339664 153.5625 37 C151.12272478 38.90421481 149.92057242 39.40472409 147 40 C147.36351562 40.73114014 147.72703125 41.46228027 148.1015625 42.21557617 C149.74461499 45.53459486 151.37242396 48.86086653 153 52.1875 C153.57234375 53.33798828 154.1446875 54.48847656 154.734375 55.67382812 C155.54648437 57.34155273 155.54648437 57.34155273 156.375 59.04296875 C156.87773437 60.06414795 157.38046875 61.08532715 157.8984375 62.13745117 C159.00301902 65.00784529 159.23441835 66.95988707 159 70 C145.71181556 71.20345821 145.71181556 71.20345821 142.06640625 68.640625 C140.70455221 66.47951892 139.85454239 64.40892554 139 62 C138.12564349 59.95805767 137.25061437 57.91640326 136.375 55.875 C135.57858628 53.91859239 134.78638393 51.96046063 134 50 C132.68796267 46.4436007 132.68796267 46.4436007 131 44 C129.35 43.67 127.7 43.34 126 43 C126 51.91 126 60.82 126 70 C121.05 70 116.1 70 111 70 C110.13495257 66.53981027 109.88286507 64.08428675 109.90234375 60.578125 C109.90484131 59.65418945 109.90733887 58.73025391 109.90991211 57.77832031 C109.91901611 56.61397461 109.92812012 55.44962891 109.9375 54.25 C109.958125 50.5375 109.97875 46.825 110 43 C101.09 42.67 92.18 42.34 83 42 C83 46.62 83 51.24 83 56 C89.27 56 95.54 56 102 56 C103.125 65 103.125 65 102 70 C82.07926195 70.94442544 62.3020138 70.99668921 42.36962891 70.31860352 C34.23888658 70.05543088 26.32511986 69.88161341 18.22363281 70.86132812 C16 71 16 71 13 70 C11.7316965 67.27404912 10.6490076 64.62944922 9.625 61.8125 C9.32263428 61.0076416 9.02026855 60.2027832 8.70874023 59.37353516 C7.79195714 56.92054059 6.89296517 54.46175506 6 52 C5.59950439 50.90002686 5.59950439 50.90002686 5.19091797 49.77783203 C3.76901469 45.86049308 2.37277836 41.93487621 1 38 C-0.68426809 41.25530808 -1.88786134 44.50470706 -3 48 C-3.66 48 -4.32 48 -5 48 C-5.0928125 49.5778125 -5.0928125 49.5778125 -5.1875 51.1875 C-5.87041887 56.85470734 -7.88761934 65.88761934 -12 70 C-14.53049402 70.07313567 -17.03304837 70.09247527 -19.5625 70.0625 C-20.27341797 70.05798828 -20.98433594 70.05347656 -21.71679688 70.04882812 C-23.47790013 70.03700864 -25.23896036 70.01907263 -27 70 C-25.86880109 64.29670225 -24.39511259 58.95177003 -22.1875 53.5625 C-21.5686053 52.01500459 -20.95159868 50.46675344 -20.3359375 48.91796875 C-19.79984863 47.570979 -19.79984863 47.570979 -19.25292969 46.19677734 C-17.73569869 42.32565056 -16.26049815 38.43949818 -14.7890625 34.55078125 C-14.21199624 33.02856415 -13.63492918 31.50634736 -13.05786133 29.98413086 C-12.18957774 27.69298254 -11.32245212 25.40143139 -10.45907593 23.10842896 C-2.81178756 2.81178756 -2.81178756 2.81178756 0 0 Z " fill="#EBEBEB" transform="translate(157,22)"/>
<path d="M0 0 C1.20527344 0.00322266 2.41054688 0.00644531 3.65234375 0.00976562 C4.90660156 0.01814453 6.16085937 0.02652344 7.453125 0.03515625 C9.35771484 0.04192383 9.35771484 0.04192383 11.30078125 0.04882812 C14.43494336 0.06061069 17.56901041 0.07706209 20.703125 0.09765625 C20.72818115 0.81945068 20.7532373 1.54124512 20.77905273 2.28491211 C20.89463802 5.53519125 21.01753274 8.78515313 21.140625 12.03515625 C21.17994141 13.17146484 21.21925781 14.30777344 21.25976562 15.47851562 C21.30166016 16.55810547 21.34355469 17.63769531 21.38671875 18.75 C21.44170532 20.2503479 21.44170532 20.2503479 21.49780273 21.78100586 C21.44984341 24.05834813 21.44984341 24.05834813 22.703125 25.09765625 C22.80625 24.22109375 22.909375 23.34453125 23.015625 22.44140625 C24.52504147 15.10015342 29.12687134 8.7626905 35.265625 4.53515625 C44.50963267 -1.18086317 55.17565627 -0.9887055 65.703125 0.09765625 C73.40439677 2.14888678 79.72210104 7.35979059 83.94921875 14.078125 C89.06451718 23.7653385 90.47508963 34.598775 87.9453125 45.3046875 C84.83188286 54.26499093 79.74110488 62.58466288 70.98388672 66.95581055 C65.74993438 69.14911685 60.96426064 69.60616179 55.328125 69.53515625 C54.49394043 69.52830811 53.65975586 69.52145996 52.80029297 69.5144043 C44.99585484 69.31118751 39.01502756 67.88266522 32.953125 62.78515625 C32.210625 61.89828125 31.468125 61.01140625 30.703125 60.09765625 C30.20039063 59.60652344 29.69765625 59.11539063 29.1796875 58.609375 C21.88731938 51.15693051 21.26280387 41.07537951 20.703125 31.09765625 C17.54066959 30.04350445 14.83364282 29.78489953 11.515625 29.53515625 C9.5975 29.39078125 7.679375 29.24640625 5.703125 29.09765625 C5.373125 24.47765625 5.043125 19.85765625 4.703125 15.09765625 C-2.12769314 15.41785085 -7.11788596 16.42136817 -12.296875 21.09765625 C-16.53287246 26.25244753 -16.86619266 31.84217113 -16.61328125 38.328125 C-16.02147112 43.50829018 -14.21490756 46.13590785 -10.671875 49.84765625 C-4.47084515 54.61767921 4.26345983 54.44328935 11.765625 54.72265625 C12.63123047 54.76132813 13.49683594 54.8 14.38867188 54.83984375 C16.49318859 54.93286106 18.5981259 55.01628294 20.703125 55.09765625 C20.703125 59.71765625 20.703125 64.33765625 20.703125 69.09765625 C5.39773402 70.58595971 -8.85166794 70.73158824 -22.296875 62.09765625 C-24.125 60.53125 -24.125 60.53125 -25.296875 59.09765625 C-25.296875 58.43765625 -25.296875 57.77765625 -25.296875 57.09765625 C-25.956875 57.09765625 -26.616875 57.09765625 -27.296875 57.09765625 C-27.9478009 55.85030058 -28.59239169 54.59963793 -29.234375 53.34765625 C-29.59402344 52.6515625 -29.95367187 51.95546875 -30.32421875 51.23828125 C-34.39120529 42.2876442 -34.06545834 27.29098684 -30.671875 18.22265625 C-29.5390625 16.02734375 -29.5390625 16.02734375 -28.296875 14.09765625 C-27.71292969 13.14246094 -27.71292969 13.14246094 -27.1171875 12.16796875 C-20.99535378 3.72780747 -10.05445504 -0.04742667 0 0 Z M40.390625 20.47265625 C36.22547308 26.95178147 35.91121623 33.56462405 36.703125 41.09765625 C38.38451886 46.91566116 41.55855454 50.85848225 46.703125 54.09765625 C52.45555478 56.20173291 57.31188295 56.73021561 62.953125 54.1484375 C68.38505969 50.88685171 71.73018666 46.01647128 73.703125 40.09765625 C74.29849746 33.65160441 73.90739357 27.81682883 70.703125 22.09765625 C68.43201772 19.24281114 68.43201772 19.24281114 65.703125 17.09765625 C65.001875 16.49953125 64.300625 15.90140625 63.578125 15.28515625 C54.8247051 11.66961325 46.82046177 13.86904011 40.390625 20.47265625 Z " fill="#EAEAEA" transform="translate(392.296875,22.90234375)"/>
<path d="M0 0 C0.66 0 1.32 0 2 0 C6.96867832 10.74353292 11.16644508 21.69845948 15.21386719 32.81958008 C18.12601925 40.77444144 21.24218847 48.60325388 24.66381836 56.3527832 C27 61.70209784 27 61.70209784 27 65 C27.77610498 62.00645224 28.39144973 59.04275136 29 56 C41.87 56 54.74 56 68 56 C68 37.85 68 19.7 68 1 C79.22 1 90.44 1 102 1 C103 9 103 9 102 15 C95.73 15 89.46 15 83 15 C83 14.34 83 13.68 83 13 C88.94 13 94.88 13 101 13 C101 9.37 101 5.74 101 2 C90.77 2 80.54 2 70 2 C70 24.44 70 46.88 70 70 C49.75 69.9375 49.75 69.9375 43.43652344 69.90991211 C34.96112554 69.88961289 26.58582091 69.88899935 18.15332031 70.88110352 C16 71 16 71 13 70 C11.7316965 67.27404912 10.6490076 64.62944922 9.625 61.8125 C9.32263428 61.0076416 9.02026855 60.2027832 8.70874023 59.37353516 C7.79195714 56.92054059 6.89296517 54.46175506 6 52 C5.59950439 50.90002686 5.59950439 50.90002686 5.19091797 49.77783203 C3.76901469 45.86049308 2.37277836 41.93487621 1 38 C-0.68426809 41.25530808 -1.88786134 44.50470706 -3 48 C-3.66 48 -4.32 48 -5 48 C-5.0928125 49.5778125 -5.0928125 49.5778125 -5.1875 51.1875 C-5.87041887 56.85470734 -7.88761934 65.88761934 -12 70 C-14.53049402 70.07313567 -17.03304837 70.09247527 -19.5625 70.0625 C-20.27341797 70.05798828 -20.98433594 70.05347656 -21.71679688 70.04882812 C-23.47790013 70.03700864 -25.23896036 70.01907263 -27 70 C-25.86880109 64.29670225 -24.39511259 58.95177003 -22.1875 53.5625 C-21.5686053 52.01500459 -20.95159868 50.46675344 -20.3359375 48.91796875 C-19.79984863 47.570979 -19.79984863 47.570979 -19.25292969 46.19677734 C-17.73569869 42.32565056 -16.26049815 38.43949818 -14.7890625 34.55078125 C-14.21199624 33.02856415 -13.63492918 31.50634736 -13.05786133 29.98413086 C-12.18957774 27.69298254 -11.32245212 25.40143139 -10.45907593 23.10842896 C-2.81178756 2.81178756 -2.81178756 2.81178756 0 0 Z " fill="#E9E9E9" transform="translate(157,22)"/>
<path d="M0 0 C1.19947266 -0.020625 2.39894531 -0.04125 3.63476562 -0.0625 C15.64308208 -0.11490946 24.22311126 1.8815623 33.0625 10.25 C39.72686606 17.79125633 40.55836899 28.53486617 40.28125 38.2109375 C39.5757836 48.01188139 36.58911927 55.07300196 29.5 62 C18.32043886 71.16975239 1.83017559 71.02372061 -11.9375 70.25 C-12.5975 69.92 -13.2575 69.59 -13.9375 69.25 C-13.9375 60.01 -13.9375 50.77 -13.9375 41.25 C-8.5319763 38.54723815 -4.73824203 38.79981449 1.0625 40.25 C1.3925 44.87 1.7225 49.49 2.0625 54.25 C10.05485156 53.81206293 14.39220528 52.63193755 20.875 47.9375 C24.21300088 43.19402506 24.89608897 36.88714543 24.0625 31.25 C22.18782623 24.89102138 19.54634298 20.94320038 14.0625 17.25 C9.59180278 14.8427015 7.67597454 15.25 2.0625 15.25 C1.7325 19.87 1.4025 24.49 1.0625 29.25 C-9.77734375 29.34765625 -9.77734375 29.34765625 -12.9375 29.25 C-14.74029191 27.44720809 -14.06786605 24.70952299 -14.0703125 22.28125 C-14.07160156 21.07082031 -14.07289063 19.86039063 -14.07421875 18.61328125 C-14.07035156 17.33839844 -14.06648438 16.06351563 -14.0625 14.75 C-14.06636719 13.47511719 -14.07023437 12.20023438 -14.07421875 10.88671875 C-14.07292969 9.67628906 -14.07164062 8.46585938 -14.0703125 7.21875 C-14.06918457 6.09919922 -14.06805664 4.97964844 -14.06689453 3.82617188 C-13.754326 -2.39689072 -4.77704643 0.01995633 0 0 Z " fill="#E9E9E9" transform="translate(495.9375,22.75)"/>
<path d="M0 0 C1.20527344 0.00322266 2.41054688 0.00644531 3.65234375 0.00976562 C4.90660156 0.01814453 6.16085937 0.02652344 7.453125 0.03515625 C9.35771484 0.04192383 9.35771484 0.04192383 11.30078125 0.04882812 C14.43494336 0.06061069 17.56901041 0.07706209 20.703125 0.09765625 C20.72818115 0.81945068 20.7532373 1.54124512 20.77905273 2.28491211 C20.89463802 5.53519125 21.01753274 8.78515313 21.140625 12.03515625 C21.17994141 13.17146484 21.21925781 14.30777344 21.25976562 15.47851562 C21.30166016 16.55810547 21.34355469 17.63769531 21.38671875 18.75 C21.44170532 20.2503479 21.44170532 20.2503479 21.49780273 21.78100586 C21.44984341 24.05834813 21.44984341 24.05834813 22.703125 25.09765625 C22.80625 24.22109375 22.909375 23.34453125 23.015625 22.44140625 C24.52682707 15.09146891 29.15706254 8.75175077 35.265625 4.47265625 C38.68784019 2.43339103 41.6651855 1.30473007 45.703125 1.09765625 C43.47819353 2.89471629 41.54096017 4.16612584 38.890625 5.28515625 C31.50969451 9.48215594 26.68875535 16.92896464 24.1171875 24.91796875 C22.2725445 34.62844796 22.8755821 45.45575861 28.5078125 53.7578125 C31.9446593 58.16086717 35.62881615 62.2779917 39.703125 66.09765625 C35.22032313 64.68877566 32.84370086 62.5522897 29.703125 59.09765625 C28.836875 58.23140625 27.970625 57.36515625 27.078125 56.47265625 C21.5011235 49.61539969 21.17800315 39.56358749 20.703125 31.09765625 C17.54066959 30.04350445 14.83364282 29.78489953 11.515625 29.53515625 C9.5975 29.39078125 7.679375 29.24640625 5.703125 29.09765625 C5.373125 24.47765625 5.043125 19.85765625 4.703125 15.09765625 C-2.12769314 15.41785085 -7.11788596 16.42136817 -12.296875 21.09765625 C-16.53287246 26.25244753 -16.86619266 31.84217113 -16.61328125 38.328125 C-16.02147112 43.50829018 -14.21490756 46.13590785 -10.671875 49.84765625 C-4.47084515 54.61767921 4.26345983 54.44328935 11.765625 54.72265625 C12.63123047 54.76132813 13.49683594 54.8 14.38867188 54.83984375 C16.49318859 54.93286106 18.5981259 55.01628294 20.703125 55.09765625 C20.703125 59.71765625 20.703125 64.33765625 20.703125 69.09765625 C5.39773402 70.58595971 -8.85166794 70.73158824 -22.296875 62.09765625 C-24.125 60.53125 -24.125 60.53125 -25.296875 59.09765625 C-25.296875 58.43765625 -25.296875 57.77765625 -25.296875 57.09765625 C-25.956875 57.09765625 -26.616875 57.09765625 -27.296875 57.09765625 C-27.9478009 55.85030058 -28.59239169 54.59963793 -29.234375 53.34765625 C-29.59402344 52.6515625 -29.95367187 51.95546875 -30.32421875 51.23828125 C-34.39120529 42.2876442 -34.06545834 27.29098684 -30.671875 18.22265625 C-29.5390625 16.02734375 -29.5390625 16.02734375 -28.296875 14.09765625 C-27.71292969 13.14246094 -27.71292969 13.14246094 -27.1171875 12.16796875 C-20.99535378 3.72780747 -10.05445504 -0.04742667 0 0 Z " fill="#DDDDDD" transform="translate(392.296875,22.90234375)"/>
<path d="M0 0 C5.24231711 -0.42969812 5.24231711 -0.42969812 8 0 C10.47627282 2.63103987 10.92011444 4.45221331 11.4375 8 C10.806738 12.32522514 8.72639776 14.70585879 5.23608398 17.32226562 C3.18553759 18.68341504 1.10567575 19.97591358 -1 21.25 C-1.7115625 21.69601563 -2.423125 22.14203125 -3.15625 22.6015625 C-6.43981486 24.62316027 -9.19281592 26.20613474 -13 27 C-13 27.66 -13 28.32 -13 29 C-16.1675785 31.19845032 -19.39060458 33.25087419 -22.66796875 35.27929688 C-23.34472656 35.71177734 -24.02148438 36.14425781 -24.71875 36.58984375 C-25.34716797 36.98034912 -25.97558594 37.37085449 -26.62304688 37.77319336 C-27.07744141 38.17803955 -27.53183594 38.58288574 -28 39 C-28.35079113 41.96164874 -28.35079113 41.96164874 -26.66162109 43.359375 C-26.03852051 43.81828125 -25.41541992 44.2771875 -24.7734375 44.75 C-24.07766602 45.27078125 -23.38189453 45.7915625 -22.66503906 46.328125 C-21.90932617 46.87984375 -21.15361328 47.4315625 -20.375 48 C-18.81454085 49.1659131 -17.25465392 50.33259242 -15.6953125 51.5 C-14.90801758 52.08523437 -14.12072266 52.67046875 -13.30957031 53.2734375 C-9.92220265 55.80572758 -6.58019939 58.39320451 -3.25 61 C-2.69103027 61.43183594 -2.13206055 61.86367187 -1.55615234 62.30859375 C7.5886005 69.4617236 7.5886005 69.4617236 8.62890625 73.3515625 C8.45347274 79.35758028 8.45347274 79.35758028 6.5 82.125 C2.8652808 83.39715172 -0.35517791 82.99818423 -4 82 C-6.67547969 80.4936664 -8.9301972 78.62659976 -11.25 76.625 C-12.44266423 75.63796754 -13.63537139 74.65098695 -14.828125 73.6640625 C-15.37533203 73.1990332 -15.92253906 72.73400391 -16.48632812 72.25488281 C-17.75333301 71.20449489 -19.081767 70.22880481 -20.421875 69.2734375 C-20.94265625 68.85320312 -21.4634375 68.43296875 -22 68 C-22 67.34 -22 66.68 -22 66 C-22.57580811 65.89655273 -23.15161621 65.79310547 -23.74487305 65.68652344 C-26.38212746 64.88366976 -27.93042989 63.73247551 -30.08203125 62.015625 C-31.23348633 61.10683594 -31.23348633 61.10683594 -32.40820312 60.1796875 C-33.59833008 59.22449219 -33.59833008 59.22449219 -34.8125 58.25 C-36.38046943 57.00389734 -37.94946564 55.75908548 -39.51953125 54.515625 C-40.27411621 53.91363281 -41.02870117 53.31164062 -41.80615234 52.69140625 C-43.81138773 51.14541573 -45.85930839 49.73217749 -47.96484375 48.328125 C-51.77482594 45.40566762 -52.41696139 43.71049801 -53.10546875 39.140625 C-53 37 -53 37 -51.0625 34.25 C-49.5465625 33.13625 -49.5465625 33.13625 -48 32 C-47.43152344 31.56945312 -46.86304688 31.13890625 -46.27734375 30.6953125 C-43.82367859 28.87258981 -41.33803677 27.20132224 -38.7109375 25.63671875 C-35.44907635 23.66738183 -32.2877699 21.56038698 -29.125 19.4375 C-27.7995023 18.55074667 -26.47398073 17.66402902 -25.1484375 16.77734375 C-24.4687793 16.32214355 -23.78912109 15.86694336 -23.08886719 15.39794922 C-19.64583779 13.09374324 -16.19770579 10.79720019 -12.75 8.5 C-11.51560077 7.67711968 -10.28122409 6.85420553 -9.046875 6.03125 C-3 2 -3 2 0 2 C0 1.34 0 0.68 0 0 Z " fill="#51C0C3" transform="translate(61,19)"/>
<path d="M0 0 C0.88816406 0.62261719 1.77632812 1.24523437 2.69140625 1.88671875 C4.24408203 2.96953125 4.24408203 2.96953125 5.828125 4.07421875 C10.27471212 7.29205828 14.65340664 10.60169095 19.02441406 13.92114258 C24.54581995 18.09777646 30.19926798 22.05033405 35.93847656 25.92114258 C45.74306827 32.55254278 45.74306827 32.55254278 47.25390625 35.57421875 C47.62538395 39.51188235 47.81153523 41.75861677 45.54248047 45.07739258 C43.27386887 47.55243961 41.09472631 49.32670992 38.32421875 51.2109375 C37.37047363 51.86594238 36.41672852 52.52094727 35.43408203 53.19580078 C34.42587402 53.87755371 33.41766602 54.55930664 32.37890625 55.26171875 C30.29509224 56.68940284 28.21175754 58.11778677 26.12890625 59.546875 C25.11957031 60.23668457 24.11023438 60.92649414 23.0703125 61.63720703 C19.47247033 64.11165916 15.91997641 66.64452472 12.37890625 69.19921875 C10.33740579 70.65778474 8.29575984 72.11614715 6.25390625 73.57421875 C4.95066406 74.51587891 4.95066406 74.51587891 3.62109375 75.4765625 C-3.64756434 80.57421875 -3.64756434 80.57421875 -8.74609375 80.57421875 C-11.55859375 79.76171875 -11.55859375 79.76171875 -13.74609375 78.57421875 C-15.19757278 75.6712607 -15.118484 73.80160096 -14.74609375 70.57421875 C-11.49963406 66.14291976 -8.18341143 63.19638314 -3.62109375 60.07421875 C-2.39626145 59.22000178 -1.17235846 58.3644513 0.05078125 57.5078125 C1.04561523 56.81534424 1.04561523 56.81534424 2.06054688 56.10888672 C6.27866643 53.15751767 10.45902308 50.15572354 14.62890625 47.13671875 C15.47984863 46.5334375 16.33079102 45.93015625 17.20751953 45.30859375 C18.38677002 44.45201172 18.38677002 44.45201172 19.58984375 43.578125 C20.2967334 43.07095947 21.00362305 42.56379395 21.73193359 42.04125977 C22.23418457 41.55713623 22.73643555 41.0730127 23.25390625 40.57421875 C23.25390625 39.58421875 23.25390625 38.59421875 23.25390625 37.57421875 C20.98072404 35.66642287 18.73983734 33.95809177 16.31640625 32.26171875 C15.63505615 31.7726001 14.95370605 31.28348145 14.25170898 30.77954102 C9.82001572 27.61554624 5.32283875 24.5672763 0.6953125 21.6953125 C0.21964844 21.32535156 -0.25601563 20.95539062 -0.74609375 20.57421875 C-0.74609375 19.91421875 -0.74609375 19.25421875 -0.74609375 18.57421875 C-1.59107422 18.435 -1.59107422 18.435 -2.453125 18.29296875 C-5.31888131 17.39467376 -7.10124026 15.95552206 -9.43359375 14.07421875 C-10.22121094 13.44515625 -11.00882813 12.81609375 -11.8203125 12.16796875 C-13.74609375 10.57421875 -13.74609375 10.57421875 -14.74609375 9.57421875 C-14.88177694 5.91077264 -14.91070801 3.06806154 -13.74609375 -0.42578125 C-9.48653789 -3.70236268 -4.46537513 -2.31843801 0 0 Z " fill="#53C2C6" transform="translate(647.74609375,20.42578125)"/>
<path d="M0 0 C11.22 0 22.44 0 34 0 C34 4.62 34 9.24 34 14 C27.4 14 20.8 14 14 14 C14.33 17.96 14.66 21.92 15 26 C28.365 26.495 28.365 26.495 42 27 C42 31.62 42 36.24 42 41 C28.635 41.495 28.635 41.495 15 42 C14.67 46.29 14.34 50.58 14 55 C15.35996094 54.91621094 16.71992187 54.83242187 18.12109375 54.74609375 C19.8932132 54.64295452 21.66534953 54.54010485 23.4375 54.4375 C24.78424805 54.35338867 24.78424805 54.35338867 26.15820312 54.26757812 C27.01220703 54.21923828 27.86621094 54.17089844 28.74609375 54.12109375 C29.53685303 54.0739624 30.3276123 54.02683105 31.14233398 53.97827148 C33 54 33 54 34 55 C34 59.62 34 64.24 34 69 C22.78 69 11.56 69 0 69 C0 46.23 0 23.46 0 0 Z " fill="#E2E2E2" transform="translate(537,23)"/>
<path d="M0 0 C10.23 0 20.46 0 31 0 C31 3.63 31 7.26 31 11 C25.06 11 19.12 11 13 11 C13 16.28 13 21.56 13 27 C21.91 27 30.82 27 40 27 C40 31.29 40 35.58 40 40 C31.09 40 22.18 40 13 40 C13 44.62 13 49.24 13 54 C19.27 54 25.54 54 32 54 C33 62 33 62 32 68 C16.16 68.495 16.16 68.495 0 69 C0 46.23 0 23.46 0 0 Z " fill="#F4F4F4" transform="translate(227,24)"/>
<path d="M0 0 C4.35135393 1.48268356 7.59870821 3.7300545 11.25 6.5 C11.79140625 6.90347656 12.3328125 7.30695312 12.890625 7.72265625 C16.86761192 10.73522384 16.86761192 10.73522384 18 13 C18.3714777 16.9376636 18.55762898 19.18439802 16.28857422 22.50317383 C14.01996262 24.97822086 11.84082006 26.75249117 9.0703125 28.63671875 C8.11656738 29.29172363 7.16282227 29.94672852 6.18017578 30.62158203 C5.17196777 31.30333496 4.16375977 31.98508789 3.125 32.6875 C1.04118599 34.11518409 -1.04214871 35.54356802 -3.125 36.97265625 C-4.13433594 37.66246582 -5.14367187 38.35227539 -6.18359375 39.06298828 C-9.78143592 41.53744041 -13.33392984 44.07030597 -16.875 46.625 C-18.91650046 48.08356599 -20.95814641 49.5419284 -23 51 C-23.86882813 51.62777344 -24.73765625 52.25554687 -25.6328125 52.90234375 C-32.90147059 58 -32.90147059 58 -38 58 C-40.8125 57.1875 -40.8125 57.1875 -43 56 C-44.45147903 53.09704195 -44.37239025 51.22738221 -44 48 C-40.75354031 43.56870101 -37.43731768 40.62216439 -32.875 37.5 C-31.6501677 36.64578303 -30.42626471 35.79023255 -29.203125 34.93359375 C-28.20829102 34.24112549 -28.20829102 34.24112549 -27.19335938 33.53466797 C-22.97523982 30.58329892 -18.79488317 27.58150479 -14.625 24.5625 C-13.77405762 23.95921875 -12.92311523 23.3559375 -12.04638672 22.734375 C-11.26021973 22.16332031 -10.47405273 21.59226562 -9.6640625 21.00390625 C-8.95717285 20.49674072 -8.2502832 19.9895752 -7.52197266 19.46704102 C-7.01972168 18.98291748 -6.5174707 18.49879395 -6 18 C-5.7763932 15.0745356 -5.7763932 15.0745356 -7 13 C-5.0625 13.6875 -5.0625 13.6875 -3 15 C-2.125 17.375 -2.125 17.375 -2 20 C-2.66666667 21.33333333 -3.33333333 22.66666667 -4 24 C-4.0777346 26.33203812 -4.08967728 28.66839059 -4 31 C-3.34 31 -2.68 31 -2 31 C-2 30.34 -2 29.68 -2 29 C4.75 28 4.75 28 7 28 C7 27.34 7 26.68 7 26 C10.465 24.02 10.465 24.02 14 22 C14.061875 20.783125 14.12375 19.56625 14.1875 18.3125 C14.22230469 17.62800781 14.25710938 16.94351563 14.29296875 16.23828125 C13.72554163 11.90313807 11.62326381 9.50871315 8.30078125 6.796875 C7.31464844 6.12140625 6.32851563 5.4459375 5.3125 4.75 C3.52842876 3.51896771 1.75350521 2.27419394 0 1 C0 0.67 0 0.34 0 0 Z " fill="#4EB5B9" transform="translate(677,43)"/>
<path d="M0 0 C0.66 0.33 1.32 0.66 2 1 C0.98679687 1.68835937 0.98679687 1.68835937 -0.046875 2.390625 C-0.93890625 3.00421875 -1.8309375 3.6178125 -2.75 4.25 C-3.63171875 4.85328125 -4.5134375 5.4565625 -5.421875 6.078125 C-7.85433494 7.89141332 -9.91728069 9.80049269 -12 12 C-3.34629141 18.99098729 5.36563152 25.8819805 14.27514648 32.5456543 C24.54538388 40.30013102 24.54538388 40.30013102 25.62890625 44.3515625 C25.45347274 50.35758028 25.45347274 50.35758028 23.5 53.125 C19.8652808 54.39715172 16.64482209 53.99818423 13 53 C10.32452031 51.4936664 8.0698028 49.62659976 5.75 47.625 C4.55733577 46.63796754 3.36462861 45.65098695 2.171875 44.6640625 C1.62466797 44.1990332 1.07746094 43.73400391 0.51367188 43.25488281 C-0.75333301 42.20449489 -2.081767 41.22880481 -3.421875 40.2734375 C-3.94265625 39.85320312 -4.4634375 39.43296875 -5 39 C-5 38.34 -5 37.68 -5 37 C-5.57145752 36.89872803 -6.14291504 36.79745605 -6.73168945 36.69311523 C-9.42998704 35.86861122 -11.07297513 34.64682569 -13.29296875 32.91015625 C-14.08767578 32.29076172 -14.88238281 31.67136719 -15.70117188 31.03320312 C-16.52166016 30.38287109 -17.34214844 29.73253906 -18.1875 29.0625 C-19.43563477 28.09280273 -19.43563477 28.09280273 -20.70898438 27.10351562 C-26.86333627 22.27332746 -26.86333627 22.27332746 -28 20 C-25.75946342 21.04024912 -23.92558087 22.06046554 -22 23.625 C-19.85514888 25.37768588 -19.85514888 25.37768588 -16 25 C-15.175 24.34 -14.35 23.68 -13.5 23 C-11 21 -11 21 -7 21 C-8.16290805 17.51127585 -9.13967609 16.90023136 -12.0625 14.8125 C-13.16271484 14.01779297 -13.16271484 14.01779297 -14.28515625 13.20703125 C-14.85105469 12.80871094 -15.41695312 12.41039062 -16 12 C-11.53122354 6.91484058 -6.00190775 3.11210031 0 0 Z " fill="#57CDD2" transform="translate(44,48)"/>
<path d="M0 0 C4.62 0 9.24 0 14 0 C14.91354437 5.4368137 15.14651132 10.6722848 15.1328125 16.1796875 C15.13376923 17.03305695 15.13472595 17.88642639 15.13571167 18.76565552 C15.13638835 20.55568516 15.13457 22.34571734 15.13037109 24.13574219 C15.12497564 26.88742481 15.13035366 29.63894714 15.13671875 32.390625 C15.13605866 34.13281286 15.13477892 35.87500062 15.1328125 37.6171875 C15.13483673 38.44314423 15.13686096 39.26910095 15.13894653 40.12008667 C15.11497734 45.88502266 15.11497734 45.88502266 14 47 C11.83519203 47.0989294 9.66706215 47.129711 7.5 47.125 C6.3140625 47.12757812 5.128125 47.13015625 3.90625 47.1328125 C1 47 1 47 0 46 C-0.09295815 44.55710213 -0.11746513 43.10970215 -0.11352539 41.66381836 C-0.11344986 40.7429393 -0.11337433 39.82206024 -0.11329651 38.87327576 C-0.10813522 37.87224319 -0.10297394 36.87121063 -0.09765625 35.83984375 C-0.0962413 34.82024063 -0.09482635 33.80063751 -0.09336853 32.75013733 C-0.08775097 29.47922893 -0.0751955 26.20838787 -0.0625 22.9375 C-0.05748726 20.72591244 -0.05292396 18.51432382 -0.04882812 16.30273438 C-0.03777583 10.86846346 -0.02049944 5.43424316 0 0 Z " fill="#FEFEFE" transform="translate(95,27)"/>
<path d="M0 0 C2.31243792 -0.02685412 4.6249627 -0.04632841 6.9375 -0.0625 C8.22527344 -0.07410156 9.51304687 -0.08570312 10.83984375 -0.09765625 C14 0 14 0 15 1 C15.09268999 2.35094982 15.11747326 3.70667091 15.11352539 5.06079102 C15.11344986 5.92160782 15.11337433 6.78242462 15.11329651 7.66932678 C15.10813522 8.60473801 15.10297394 9.54014923 15.09765625 10.50390625 C15.0962413 11.45692123 15.09482635 12.40993622 15.09336853 13.39183044 C15.08775152 16.44875165 15.07519616 19.50560077 15.0625 22.5625 C15.05748719 24.62955624 15.05292391 26.69661362 15.04882812 28.76367188 C15.03777656 33.84247588 15.02050055 38.9212257 15 44 C10.05 44 5.1 44 0 44 C-0.16738578 38.05533775 -0.32796884 32.11054603 -0.48217773 26.16552734 C-0.53563266 24.14203921 -0.59096466 22.11859977 -0.64819336 20.09521484 C-0.73000696 17.19118757 -0.80512562 14.28705356 -0.87890625 11.3828125 C-0.90594131 10.47443634 -0.93297638 9.56606018 -0.96083069 8.63015747 C-0.98092697 7.78943695 -1.00102325 6.94871643 -1.02172852 6.08251953 C-1.04171402 5.34083527 -1.06169952 4.599151 -1.08229065 3.83499146 C-1 2 -1 2 0 0 Z " fill="#D5D5D5" transform="translate(186,23)"/>
<path d="M0 0 C4.62 0 9.24 0 14 0 C14 15.51 14 31.02 14 47 C9.38 47 4.76 47 0 47 C0 31.49 0 15.98 0 0 Z " fill="#FDFDFD" transform="translate(601,27)"/>
<path d="M0 0 C4.62 0 9.24 0 14 0 C14 14.85 14 29.7 14 45 C9.38 45 4.76 45 0 45 C-0.16737766 38.91291842 -0.32796157 32.82571052 -0.48217773 26.73828125 C-0.5356348 24.66629175 -0.59096697 22.59434976 -0.64819336 20.52246094 C-0.73000096 17.54893237 -0.80512222 14.57529961 -0.87890625 11.6015625 C-0.90594131 10.67131256 -0.93297638 9.74106262 -0.96083069 8.78262329 C-0.98092697 7.92188202 -1.00102325 7.06114075 -1.02172852 6.17431641 C-1.04171402 5.41486725 -1.06169952 4.65541809 -1.08229065 3.87295532 C-1 2 -1 2 0 0 Z " fill="#E2E2E2" transform="translate(331,47)"/>
<path d="M0 0 C13.86 0 27.72 0 42 0 C42.495 5.94 42.495 5.94 43 12 C39.92222716 14.05184856 39.42648435 14.24373768 35.98754883 14.13525391 C35.18694534 14.11508209 34.38634186 14.09491028 33.56147766 14.0741272 C32.70201035 14.04193085 31.84254303 14.0097345 30.95703125 13.9765625 C30.0734343 13.95153656 29.18983734 13.92651062 28.27946472 13.90072632 C25.45675201 13.81854151 22.63474056 13.72194628 19.8125 13.625 C17.89911721 13.56675887 15.98570562 13.50945563 14.07226562 13.453125 C9.38110694 13.31296494 4.69052637 13.15987917 0 13 C0 8.71 0 4.42 0 0 Z " fill="#DBDBDB" transform="translate(317,23)"/>
<path d="M0 0 C2.17578125 0.00390625 2.17578125 0.00390625 4.1875 0.4375 C6.6875 3.4375 6.6875 3.4375 8.1875 6.4375 C11.06170123 3.72145285 11.06170123 3.72145285 13.1875 0.4375 C15.8275 0.4375 18.4675 0.4375 21.1875 0.4375 C22.43247833 2.92745665 22.31684372 4.62744911 22.3203125 7.41015625 C22.32224609 8.88258789 22.32224609 8.88258789 22.32421875 10.38476562 C22.32035156 11.41279297 22.31648437 12.44082031 22.3125 13.5 C22.31830078 15.0478418 22.31830078 15.0478418 22.32421875 16.62695312 C22.32292969 17.60728516 22.32164062 18.58761719 22.3203125 19.59765625 C22.31918457 20.50136963 22.31805664 21.40508301 22.31689453 22.33618164 C22.1875 24.4375 22.1875 24.4375 21.1875 25.4375 C18.85452567 25.47842937 16.52044775 25.47991723 14.1875 25.4375 C13.8575 22.4675 13.5275 19.4975 13.1875 16.4375 C12.1975 17.7575 11.2075 19.0775 10.1875 20.4375 C8.3125 20.125 8.3125 20.125 6.1875 19.4375 C5.5275 18.4475 4.8675 17.4575 4.1875 16.4375 C3.8575 19.4075 3.5275 22.3775 3.1875 25.4375 C0.85455225 25.47991723 -1.47952567 25.47842937 -3.8125 25.4375 C-5.49766954 23.75233046 -4.94258019 21.64982212 -4.9453125 19.34375 C-4.94724609 17.79880859 -4.94724609 17.79880859 -4.94921875 16.22265625 C-4.94535156 15.13855469 -4.94148437 14.05445313 -4.9375 12.9375 C-4.94136719 11.85339844 -4.94523438 10.76929687 -4.94921875 9.65234375 C-4.94792969 8.62238281 -4.94664062 7.59242187 -4.9453125 6.53125 C-4.94418457 5.57927734 -4.94305664 4.62730469 -4.94189453 3.64648438 C-4.72044853 -0.13397487 -3.98383113 0.45716095 0 0 Z " fill="#BABABA" transform="translate(552.8125,116.5625)"/>
<path d="M0 0 C6.08390053 -0.78288953 9.09642226 1.64996335 13.6875 5.1875 C14.68233398 5.91163086 14.68233398 5.91163086 15.69726562 6.65039062 C19.92708252 9.8238182 23.26664895 12.71825407 24.46875 18.09765625 C24.53014841 21.95808131 24.34064151 23.63173891 21.6875 26.5 C19 28 19 28 16 28 C16 28.66 16 29.32 16 30 C9.25 31 9.25 31 7 31 C7 31.66 7 32.32 7 33 C6.34 33 5.68 33 5 33 C4.14017062 28.52888724 3.65524361 25.95677641 6 22 C5.67 21.34 5.34 20.68 5 20 C5.66 20 6.32 20 7 20 C6.175 19.2575 5.35 18.515 4.5 17.75 C2 15 2 15 2 11 C1.21625 11.04125 0.4325 11.0825 -0.375 11.125 C-3 11 -3 11 -5 9 C-5.125 6.375 -5.125 6.375 -5 4 C-4.34 4 -3.68 4 -3 4 C-2.67 3.34 -2.34 2.68 -2 2 C-1.34 2 -0.68 2 0 2 C0 1.34 0 0.68 0 0 Z " fill="#5DDCE1" transform="translate(668,41)"/>
<path d="M0 0 C12.54 0 25.08 0 38 0 C38 3.96 38 7.92 38 12 C37 13 37 13 33.48999023 13.11352539 C31.92951578 13.11336626 30.36903607 13.10767142 28.80859375 13.09765625 C27.98875504 13.0962413 27.16891632 13.09482635 26.32423401 13.09336853 C23.69528618 13.08775289 21.06642227 13.07519779 18.4375 13.0625 C16.65950643 13.05748701 14.88151154 13.05292376 13.10351562 13.04882812 C8.73564455 13.03777839 4.36783652 13.02050331 0 13 C0 8.71 0 4.42 0 0 Z " fill="#F1F1F1" transform="translate(187,79)"/>
<path d="M0 0 C2.701875 -0.0825 5.40375 -0.165 8.1875 -0.25 C9.02949951 -0.28641602 9.87149902 -0.32283203 10.73901367 -0.36035156 C14.65716126 -0.41810151 16.56429427 -0.27460927 19.96875 1.87109375 C23.19026186 5.24748599 23.89304241 7.82346653 24.3125 12.4375 C23.96364053 16.41449792 23.19239841 18.67360241 21 22 C16.77122276 25.35304166 12.8632177 25.36648279 7.6875 25.1875 C5.150625 25.125625 2.61375 25.06375 0 25 C0 16.75 0 8.5 0 0 Z M8 6 C6.75261777 7.02621107 6.75261777 7.02621107 6.8671875 9.21484375 C6.86976563 10.11332031 6.87234375 11.01179687 6.875 11.9375 C6.87242187 12.83339844 6.86984375 13.72929687 6.8671875 14.65234375 C6.84578587 17.02155555 6.84578587 17.02155555 8 19 C11.37462715 18.45276317 13.08235 17.9451 16 16 C15.74831259 11.04591382 15.74831259 11.04591382 13.125 7.0625 C10.94875678 5.7763932 10.94875678 5.7763932 8 6 Z " fill="#CBCBCB" transform="translate(480,117)"/>
<path d="M0 0 C6.6 0 13.2 0 20 0 C20 1.98 20 3.96 20 6 C19.67 6.33 19.34 6.66 19 7 C17.14227838 6.91015699 15.28752015 6.75388139 13.4375 6.5625 C11.91962891 6.40974609 11.91962891 6.40974609 10.37109375 6.25390625 C9.19740234 6.12822266 9.19740234 6.12822266 8 6 C8 6.99 8 7.98 8 9 C9.051875 8.7215625 9.051875 8.7215625 10.125 8.4375 C13.33888698 7.94843024 15.83560336 8.33768442 19 9 C19 10.98 19 12.96 19 15 C18.01 15.495 18.01 15.495 17 16 C16.34 15.67 15.68 15.34 15 15 C15 15.66 15 16.32 15 17 C14.01 17 13.02 17 12 17 C12 16.34 12 15.68 12 15 C10.68 15 9.36 15 8 15 C8 15.99 8 16.98 8 18 C8.99 17.67 9.98 17.34 11 17 C18.31300813 17.31300813 18.31300813 17.31300813 20 19 C20 20.98 20 22.96 20 25 C13.4 25 6.8 25 0 25 C-0.79184565 21.83261742 -1.12812361 19.69245457 -1.1328125 16.5234375 C-1.13410156 15.688125 -1.13539063 14.8528125 -1.13671875 13.9921875 C-1.13285156 13.12851563 -1.12898437 12.26484375 -1.125 11.375 C-1.12886719 10.50359375 -1.13273438 9.6321875 -1.13671875 8.734375 C-1.13542969 7.90164062 -1.13414062 7.06890625 -1.1328125 6.2109375 C-1.13168457 5.45087402 -1.13055664 4.69081055 -1.12939453 3.90771484 C-1 2 -1 2 0 0 Z " fill="#F5F5F5" transform="translate(516,117)"/>
<path d="M0 0 C2.64 0 5.28 0 8 0 C9.35233815 2.99176485 10.68026952 5.99371299 12 9 C12.68255859 10.54880859 12.68255859 10.54880859 13.37890625 12.12890625 C13.83136719 13.17949219 14.28382813 14.23007813 14.75 15.3125 C15.17796875 16.29863281 15.6059375 17.28476563 16.046875 18.30078125 C17 21 17 21 17 25 C13.625 25.1875 13.625 25.1875 10 25 C9.34 24.01 8.68 23.02 8 22 C6.098006 21.52441794 6.098006 21.52441794 4 21.625 C2.948125 21.61339844 2.948125 21.61339844 1.875 21.6015625 C-0.41058594 21.859086 -0.41058594 21.859086 -2 25 C-5.625 25.1875 -5.625 25.1875 -9 25 C-8.48377778 18.89546742 -6.51417404 14.08521586 -3.9375 8.5625 C-3.37192383 7.32209961 -3.37192383 7.32209961 -2.79492188 6.05664062 C-1.87125642 4.03393021 -0.93953046 2.01537743 0 0 Z M4 11 C4 14 4 14 4 14 Z " fill="#EAEAEA" transform="translate(379,117)"/>
<path d="M0 0 C3.625 -0.1875 3.625 -0.1875 7 0 C17 16.46808511 17 16.46808511 17 25 C13.625 25.1875 13.625 25.1875 10 25 C9.34 24.01 8.68 23.02 8 22 C5.80545319 21.42006301 5.80545319 21.42006301 3.375 21.3125 C2.55773437 21.24675781 1.74046875 21.18101562 0.8984375 21.11328125 C0.27195312 21.07589844 -0.35453125 21.03851563 -1 21 C-1.33 22.32 -1.66 23.64 -2 25 C-4.31 25 -6.62 25 -9 25 C-10 23 -10 23 -9.41088867 20.98461914 C-8.91939331 19.77213501 -8.91939331 19.77213501 -8.41796875 18.53515625 C-8.06283203 17.65279297 -7.70769531 16.77042969 -7.34179688 15.86132812 C-6.96087891 14.93771484 -6.57996094 14.01410156 -6.1875 13.0625 C-5.81818359 12.14275391 -5.44886719 11.22300781 -5.06835938 10.27539062 C-3.5749027 6.59939583 -2.2087481 3.31312215 0 0 Z M3 11 C2.67 11.99 2.34 12.98 2 14 C2.99 14 3.98 14 5 14 C4.67 13.01 4.34 12.02 4 11 C3.67 11 3.34 11 3 11 Z " fill="#E4E4E4" transform="translate(451,117)"/>
<path d="M0 0 C0.99 1.32 1.98 2.64 3 4 C2.67 4.66 2.34 5.32 2 6 C3.98 6.66 5.96 7.32 8 8 C8 8.66 8 9.32 8 10 C3.61538462 13 3.61538462 13 1 13 C0.90976562 13.59425781 0.81953125 14.18851563 0.7265625 14.80078125 C-0.62403883 18.88889174 -4.38539753 20.93724983 -8 23 C-10.44863565 23.7107463 -12.43008417 23.89292017 -15 24 C-15 24.99 -15 25.98 -15 27 C-18.96 27.495 -18.96 27.495 -23 28 C-23.33 27.01 -23.66 26.02 -24 25 C-24.66 24.67 -25.32 24.34 -26 24 C-25.68677259 20.8237642 -25.32126012 19.33099528 -23.06640625 17.0078125 C-22.24011719 16.38648437 -21.41382813 15.76515625 -20.5625 15.125 C-19.66273438 14.44179687 -18.76296875 13.75859375 -17.8359375 13.0546875 C-14.32142003 10.50835666 -10.78221797 8.00337284 -7.20703125 5.54296875 C-4.71434454 3.80029397 -2.33631952 1.94693293 0 0 Z " fill="#5DE0E4" transform="translate(661,70)"/>
<path d="M0 0 C1.02222656 -0.00773437 2.04445313 -0.01546875 3.09765625 -0.0234375 C6.24007047 0.41745143 7.61512023 1.26982121 9.9375 3.375 C9.36405063 6.24224686 9.0760485 7.2364515 6.9375 9.375 C4.33062628 9.26931593 1.82856427 8.85853297 -0.75 8.46875 C-1.513125 8.4378125 -2.27625 8.406875 -3.0625 8.375 C-5.30095015 10.20415641 -5.30095015 10.20415641 -5.375 12.875 C-5.271875 13.7 -5.16875 14.525 -5.0625 15.375 C-1.1985425 17.95097166 0.42261136 17.19197069 4.78125 16.37109375 C6.9375 16.375 6.9375 16.375 8.71875 17.66015625 C9.9375 19.375 9.9375 19.375 9.9375 22.375 C7.69939165 24.66141284 6.28045688 25.32688225 3.09765625 25.7734375 C1.56431641 25.76183594 1.56431641 25.76183594 0 25.75 C-1.01964844 25.75773437 -2.03929687 25.76546875 -3.08984375 25.7734375 C-6.46880187 25.32054167 -8.33315469 24.38860791 -11.0625 22.375 C-13.95800431 17.98182104 -14.62128366 14.59031417 -14.0625 9.375 C-11.4703986 2.28082774 -7.43638548 -0.05640748 0 0 Z " fill="#CACACA" transform="translate(421.0625,116.625)"/>
<path d="M0 0 C11.22 0 22.44 0 34 0 C35 8 35 8 34 14 C27.73 14 21.46 14 15 14 C15 13.34 15 12.68 15 12 C20.94 12 26.88 12 33 12 C33 8.37 33 4.74 33 1 C22.77 1 12.54 1 2 1 C2 23.44 2 45.88 2 69 C0.515 68.505 0.515 68.505 -1 68 C-0.67 64.04 -0.34 60.08 0 56 C-12.54 56 -25.08 56 -38 56 C-38 60.29 -38 64.58 -38 69 C-40.27020744 69.19493195 -42.54120289 69.38070418 -44.8125 69.5625 C-46.07707031 69.66691406 -47.34164062 69.77132812 -48.64453125 69.87890625 C-52 70 -52 70 -55 69 C-56.24704217 66.3156889 -57.30802684 63.71208377 -58.3125 60.9375 C-58.6122876 60.13489746 -58.9120752 59.33229492 -59.22094727 58.50537109 C-59.84401689 56.83543297 -60.46268915 55.16384813 -61.07714844 53.49072266 C-61.95809712 51.11309345 -62.86713326 48.74871574 -63.7890625 46.38671875 C-64.33869697 44.96620591 -64.8881831 43.54563567 -65.4375 42.125 C-65.69635986 41.4662085 -65.95521973 40.80741699 -66.22192383 40.12866211 C-67.48328267 36.81278121 -68 34.61464572 -68 31 C-67.34 31 -66.68 31 -66 31 C-65.74476563 31.92619141 -65.74476563 31.92619141 -65.484375 32.87109375 C-64.2428355 37.20987806 -62.92503135 41.35051036 -61 45.4375 C-58.67056657 50.46089651 -57.35999175 55.64855316 -56 61 C-55.61005888 62.39749084 -55.215175 63.79362498 -54.8125 65.1875 C-54.544375 66.115625 -54.27625 67.04375 -54 68 C-49.71 68 -45.42 68 -41 68 C-40.855625 66.783125 -40.71125 65.56625 -40.5625 64.3125 C-40.18652748 61.14358879 -39.63024451 58.15122255 -39 55 C-26.13 55 -13.26 55 0 55 C0 36.85 0 18.7 0 0 Z " fill="#575757" transform="translate(225,23)"/>
<path d="M0 0 C1.32 0 2.64 0 4 0 C6.34168764 3.51253146 6.49623677 4.86469356 6 9 C4.20006226 11.69990662 2.916227 13.5418865 0 15 C-1.9593604 15.08510205 -3.92162794 15.10717656 -5.8828125 15.09765625 C-6.93355957 15.09515869 -7.98430664 15.09266113 -9.06689453 15.09008789 C-10.40606934 15.08098389 -11.74524414 15.07187988 -13.125 15.0625 C-17.37375 15.041875 -21.6225 15.02125 -26 15 C-26 27.87 -26 40.74 -26 54 C-22.04 54 -18.08 54 -14 54 C-14 45.09 -14 36.18 -14 27 C-11.36 27 -8.72 27 -6 27 C-4.56030542 30.0197921 -3.12364913 33.04102035 -1.6875 36.0625 C-1.08131836 37.33383789 -1.08131836 37.33383789 -0.46289062 38.63085938 C1.79353583 43.38219639 3.96617024 48.14908565 6 53 C9.96 53.33 13.92 53.66 18 54 C17.649375 53.0925 17.29875 52.185 16.9375 51.25 C16.03531221 48.12241564 15.86618493 46.94791919 17 44 C19.19732813 47.93687957 20.18345639 50.51296237 20 55 C6.71181556 56.20345821 6.71181556 56.20345821 3.06640625 53.640625 C1.70455221 51.47951892 0.85454239 49.40892554 0 47 C-0.87435651 44.95805767 -1.74938563 42.91640326 -2.625 40.875 C-3.42141372 38.91859239 -4.21361607 36.96046063 -5 35 C-6.31203733 31.4436007 -6.31203733 31.4436007 -8 29 C-9.65 28.67 -11.3 28.34 -13 28 C-13 36.91 -13 45.82 -13 55 C-17.95 55 -22.9 55 -28 55 C-28.86504743 51.53981027 -29.11713493 49.08428675 -29.09765625 45.578125 C-29.09443359 44.55332031 -29.09121094 43.52851562 -29.08789062 42.47265625 C-29.07951172 41.40917969 -29.07113281 40.34570312 -29.0625 39.25 C-29.05798828 38.17105469 -29.05347656 37.09210938 -29.04882812 35.98046875 C-29.03705727 33.32025617 -29.02061399 30.66015635 -29 28 C-29.66 27.67 -30.32 27.34 -31 27 C-30.34 27 -29.68 27 -29 27 C-29 22.71 -29 18.42 -29 14 C-37.91 14 -46.82 14 -56 14 C-56 13.67 -56 13.34 -56 13 C-55.33458694 13.00666183 -54.66917389 13.01332367 -53.9835968 13.02018738 C-47.05690341 13.08656679 -40.1303004 13.13181163 -33.20336914 13.16479492 C-30.61837087 13.17987962 -28.03339818 13.20035002 -25.44848633 13.22631836 C-21.7325204 13.26271442 -18.01689293 13.27972985 -14.30078125 13.29296875 C-13.14540359 13.30845261 -11.99002594 13.32393646 -10.79963684 13.33988953 C-9.17852242 13.34022942 -9.17852242 13.34022942 -7.5246582 13.34057617 C-6.10235649 13.35056892 -6.10235649 13.35056892 -4.65132141 13.36076355 C-1.46964514 12.92783496 0.41234214 11.87039723 3 10 C4.07642709 8.11149645 4.07642709 8.11149645 4 6 C2.99392854 3.36873617 2.00773956 2.00773956 0 0 Z " fill="#6D6D6D" transform="translate(296,37)"/>
<path d="M0 0 C3.16257345 1.61559904 5.92292639 3.673693 8.75 5.8125 C9.50410156 6.35970703 10.25820313 6.90691406 11.03515625 7.47070312 C14.23930228 9.81832344 17.24457071 12.12914057 20 15 C17.23735711 15.59732819 14.83967231 16 12 16 C11.67 17.98 11.34 19.96 11 22 C9.35 21.34 7.7 20.68 6 20 C6 19.34 6 18.68 6 18 C4.35 18 2.7 18 1 18 C1 17.01 1 16.02 1 15 C-0.093125 14.731875 -1.18625 14.46375 -2.3125 14.1875 C-7.00486618 12.67639903 -7.00486618 12.67639903 -9 10 C-9.29296875 7.73828125 -9.29296875 7.73828125 -9.1875 5.3125 C-9.16042969 4.50425781 -9.13335938 3.69601563 -9.10546875 2.86328125 C-9.07066406 2.24839844 -9.03585937 1.63351563 -9 1 C-5.78416607 -0.60791696 -3.57813871 -0.38846327 0 0 Z " fill="#5DDFE4" transform="translate(644,20)"/>
<path d="M0 0 C5.28497409 -0.52849741 5.28497409 -0.52849741 8 0 C10.5 3 10.5 3 12 6 C12.66 5.01 13.32 4.02 14 3 C15.6775152 0.94057212 16.47308089 0.09934519 19.11328125 -0.3984375 C21.3125 -0.375 21.3125 -0.375 25 0 C23.63416717 3.6686138 21.9368141 6.88997335 19.9375 10.25 C17.09906033 15.33985411 16.18994337 19.20672737 16 25 C13.69 25 11.38 25 9 25 C7.66666667 19.66666667 6.33333333 14.33333333 5 9 C4.34 9 3.68 9 3 9 C0 3.375 0 3.375 0 0 Z " fill="#D3D3D3" transform="translate(586,117)"/>
<path d="M0 0 C0 7.59 0 15.18 0 23 C-1.32 23 -2.64 23 -4 23 C-4.33 18.38 -4.66 13.76 -5 9 C-8.33949284 13.63039069 -8.33949284 13.63039069 -10 19 C-11.875 18.6875 -11.875 18.6875 -14 18 C-14.66 17.01 -15.32 16.02 -16 15 C-16.33 16.65 -16.66 18.3 -17 20 C-17.33 20 -17.66 20 -18 20 C-18 16.04 -18 12.08 -18 8 C-17.34 8 -16.68 8 -16 8 C-15.67 7.34 -15.34 6.68 -15 6 C-14.01 6.33 -13.02 6.66 -12 7 C-12 7.66 -12 8.32 -12 9 C-11.34 9 -10.68 9 -10 9 C-9.731875 8.071875 -9.46375 7.14375 -9.1875 6.1875 C-7.07876746 0.52721792 -6.23445926 0 0 0 Z " fill="#F5F5F5" transform="translate(573,118)"/>
<path d="M0 0 C6.6 0 13.2 0 20 0 C20 1.98 20 3.96 20 6 C19.67 6.33 19.34 6.66 19 7 C17.14227838 6.91015699 15.28752015 6.75388139 13.4375 6.5625 C11.91962891 6.40974609 11.91962891 6.40974609 10.37109375 6.25390625 C9.19740234 6.12822266 9.19740234 6.12822266 8 6 C8 6.99 8 7.98 8 9 C9.051875 8.7215625 9.051875 8.7215625 10.125 8.4375 C13.33888698 7.94843024 15.83560336 8.33768442 19 9 C19 10.98 19 12.96 19 15 C18.01 15.495 18.01 15.495 17 16 C16.34 15.67 15.68 15.34 15 15 C15 15.66 15 16.32 15 17 C14.01 17 13.02 17 12 17 C12 16.34 12 15.68 12 15 C13.65 14.67 15.3 14.34 17 14 C17 13.01 17 12.02 17 11 C13.7 11 10.4 11 7 11 C7 9.02 7 7.04 7 5 C10.96 5 14.92 5 19 5 C19 3.68 19 2.36 19 1 C13.39 1 7.78 1 2 1 C2 8.59 2 16.18 2 24 C7.61 24 13.22 24 19 24 C19 22.68 19 21.36 19 20 C14.71 20 10.42 20 6 20 C6 18.35 6 16.7 6 15 C6.66 15 7.32 15 8 15 C8 15.99 8 16.98 8 18 C8.99 17.67 9.98 17.34 11 17 C18.31300813 17.31300813 18.31300813 17.31300813 20 19 C20 20.98 20 22.96 20 25 C13.4 25 6.8 25 0 25 C-0.79184565 21.83261742 -1.12812361 19.69245457 -1.1328125 16.5234375 C-1.13410156 15.688125 -1.13539063 14.8528125 -1.13671875 13.9921875 C-1.13285156 13.12851563 -1.12898437 12.26484375 -1.125 11.375 C-1.12886719 10.50359375 -1.13273438 9.6321875 -1.13671875 8.734375 C-1.13542969 7.90164062 -1.13414062 7.06890625 -1.1328125 6.2109375 C-1.13168457 5.45087402 -1.13055664 4.69081055 -1.12939453 3.90771484 C-1 2 -1 2 0 0 Z " fill="#383838" transform="translate(516,117)"/>
<path d="M0 0 C4.14822958 0.8642145 5.60540961 2.14195943 8 5.625 C8.38008358 8.54086511 8.06994594 10.88806645 7 13.625 C4.21087333 16.25474801 2.75544691 16.64041728 -1.0625 16.5625 C-4.49090073 15.46832955 -5.93104835 14.56927735 -8 11.625 C-8.5625 8.6875 -8.5625 8.6875 -8 5.625 C-5.54405875 2.30225596 -4.0743356 0.84881992 0 0 Z " fill="#D3D3D3" transform="translate(608,76.375)"/>
<path d="M0 0 C-0.96099609 0.4021875 -0.96099609 0.4021875 -1.94140625 0.8125 C-11.37335264 5.08569181 -17.22162532 11.33061103 -21 21 C-23.7663835 29.59423141 -23.00665021 40.92036432 -19 49 C-15.25925744 54.5139517 -10.85579006 59.44769682 -6 64 C-10.48280187 62.59111941 -12.85942414 60.45463345 -16 57 C-16.86625 56.13375 -17.7325 55.2675 -18.625 54.375 C-24.2020015 47.51774344 -24.52512185 37.46593124 -25 29 C-28.16245541 27.9458482 -30.86948218 27.68724328 -34.1875 27.4375 C-36.105625 27.293125 -38.02375 27.14875 -40 27 C-40.33 22.38 -40.66 17.76 -41 13 C-43.97 13 -46.94 13 -50 13 C-48 11 -48 11 -45.6171875 10.8046875 C-44.71226562 10.82789063 -43.80734375 10.85109375 -42.875 10.875 C-40.461875 10.936875 -40.461875 10.936875 -38 11 C-38 15.95 -38 20.9 -38 26 C-34.04 26 -30.08 26 -26 26 C-26 24.35 -26 22.7 -26 21 C-25.34 20.67 -24.68 20.34 -24 20 C-23.67 20.99 -23.34 21.98 -23 23 C-22.896875 22.1234375 -22.79375 21.246875 -22.6875 20.34375 C-21.14924712 12.86224737 -16.48819043 6.58903205 -10.1875 2.375 C-4.12262156 -1.23678647 -4.12262156 -1.23678647 0 0 Z " fill="#252525" transform="translate(438,25)"/>
<path d="M0 0 C2.60057161 2.26501399 2.94731161 3.57849291 3.375 7 C2.95114595 10.39083243 2.53510672 11.71840395 0 14 C-3.69111926 15.20362584 -5.29598951 15.34418291 -8.8125 13.625 C-11 12 -11 12 -12 11 C-12.36090226 3.54135338 -12.36090226 3.54135338 -10 0 C-6.20519658 -1.26493447 -3.87641726 -0.89988258 0 0 Z " fill="#EBEBEB" transform="translate(107,78)"/>
<path d="M0 0 C4.62 0 9.24 0 14 0 C14.91354437 5.4368137 15.14651132 10.6722848 15.1328125 16.1796875 C15.13376923 17.03305695 15.13472595 17.88642639 15.13571167 18.76565552 C15.13638835 20.55568516 15.13457 22.34571734 15.13037109 24.13574219 C15.12497564 26.88742481 15.13035366 29.63894714 15.13671875 32.390625 C15.13605866 34.13281286 15.13477892 35.87500062 15.1328125 37.6171875 C15.13483673 38.44314423 15.13686096 39.26910095 15.13894653 40.12008667 C15.11497734 45.88502266 15.11497734 45.88502266 14 47 C11.83519203 47.0989294 9.66706215 47.129711 7.5 47.125 C6.3140625 47.12757812 5.128125 47.13015625 3.90625 47.1328125 C1 47 1 47 0 46 C-0.09295815 44.55710213 -0.11746513 43.10970215 -0.11352539 41.66381836 C-0.11344986 40.7429393 -0.11337433 39.82206024 -0.11329651 38.87327576 C-0.10813522 37.87224319 -0.10297394 36.87121063 -0.09765625 35.83984375 C-0.0962413 34.82024063 -0.09482635 33.80063751 -0.09336853 32.75013733 C-0.08775097 29.47922893 -0.0751955 26.20838787 -0.0625 22.9375 C-0.05748726 20.72591244 -0.05292396 18.51432382 -0.04882812 16.30273438 C-0.03777583 10.86846346 -0.02049944 5.43424316 0 0 Z M2 1 C2 15.52 2 30.04 2 45 C5.63 45 9.26 45 13 45 C13 30.48 13 15.96 13 1 C9.37 1 5.74 1 2 1 Z " fill="#5C5C5C" transform="translate(95,27)"/>
<path d="M0 0 C2.1015625 0.375 2.1015625 0.375 4.2265625 1.875 C5.5840253 5.75346515 5.00794739 8.36100976 4.1015625 12.375 C0.3252987 14.8925092 -2.46197027 15.11441121 -6.8984375 14.375 C-9.60259551 12.17787161 -9.84336495 10.81558039 -10.2734375 7.375 C-9.42469346 0.58504768 -6.34693864 -0.33078508 0 0 Z " fill="#B6B6B6" transform="translate(449.8984375,50.625)"/>
<path d="M0 0 C1.19947266 -0.020625 2.39894531 -0.04125 3.63476562 -0.0625 C13.10771334 -0.10384402 21.72893448 0.56162947 29.1875 6.9375 C29.93257812 7.56011719 30.67765625 8.18273437 31.4453125 8.82421875 C31.97898437 9.29472656 32.51265625 9.76523437 33.0625 10.25 C32.7325 10.91 32.4025 11.57 32.0625 12.25 C31.32 11.651875 30.5775 11.05375 29.8125 10.4375 C28.905 9.715625 27.9975 8.99375 27.0625 8.25 C26.134375 7.445625 26.134375 7.445625 25.1875 6.625 C17.43667084 1.6097576 6.51415361 2.08474077 -2.4375 1.6875 C-5.5725 1.543125 -8.7075 1.39875 -11.9375 1.25 C-11.9375 9.83 -11.9375 18.41 -11.9375 27.25 C-7.9775 27.25 -4.0175 27.25 0.0625 27.25 C0.0625 22.63 0.0625 18.01 0.0625 13.25 C1.63 13.20875 3.1975 13.1675 4.8125 13.125 C5.69421875 13.10179687 6.5759375 13.07859375 7.484375 13.0546875 C10.1760858 13.25860498 11.76154974 13.88448279 14.0625 15.25 C13.0725 15.58 12.0825 15.91 11.0625 16.25 C10.4025 15.92 9.7425 15.59 9.0625 15.25 C6.7525 15.25 4.4425 15.25 2.0625 15.25 C1.7325 19.87 1.4025 24.49 1.0625 29.25 C-9.77734375 29.34765625 -9.77734375 29.34765625 -12.9375 29.25 C-14.74029191 27.44720809 -14.06786605 24.70952299 -14.0703125 22.28125 C-14.07160156 21.07082031 -14.07289063 19.86039063 -14.07421875 18.61328125 C-14.07035156 17.33839844 -14.06648438 16.06351563 -14.0625 14.75 C-14.06636719 13.47511719 -14.07023437 12.20023438 -14.07421875 10.88671875 C-14.07292969 9.67628906 -14.07164062 8.46585938 -14.0703125 7.21875 C-14.06918457 6.09919922 -14.06805664 4.97964844 -14.06689453 3.82617188 C-13.754326 -2.39689072 -4.77704643 0.01995633 0 0 Z " fill="#575757" transform="translate(495.9375,22.75)"/>
<path d="M0 0 C4.62 0 9.24 0 14 0 C14 15.51 14 31.02 14 47 C9.38 47 4.76 47 0 47 C0 31.49 0 15.98 0 0 Z M2 1 C2 15.52 2 30.04 2 45 C5.63 45 9.26 45 13 45 C13 30.48 13 15.96 13 1 C9.37 1 5.74 1 2 1 Z " fill="#686868" transform="translate(601,27)"/>
<path d="M0 0 C2.6956957 1.54039754 5.1399776 3.1126649 7.5625 5.0625 C9.67095905 6.73845463 11.55360505 7.91271336 14 9 C13.67 11.64 13.34 14.28 13 17 C12.34 17 11.68 17 11 17 C11 17.66 11 18.32 11 19 C9.02 19 7.04 19 5 19 C4.67 17.68 4.34 16.36 4 15 C2.68 15 1.36 15 0 15 C-1.125 10.25 -1.125 10.25 0 8 C0.66 8 1.32 8 2 8 C2 6.02 2 4.04 2 2 C1.34 2 0.68 2 0 2 C0 1.34 0 0.68 0 0 Z " fill="#5CE2E6" transform="translate(54,80)"/>
<path d="M0 0 C1.32 0 2.64 0 4 0 C6.34168764 3.51253146 6.49623677 4.86469356 6 9 C4.20006226 11.69990662 2.916227 13.5418865 0 15 C-2.03232634 15.08527628 -4.06747006 15.10716135 -6.1015625 15.09765625 C-7.19291504 15.09515869 -8.28426758 15.09266113 -9.40869141 15.09008789 C-11.49576416 15.07643188 -11.49576416 15.07643188 -13.625 15.0625 C-18.03875 15.041875 -22.4525 15.02125 -27 15 C-27 28.2 -27 41.4 -27 55 C-28.95609885 51.08780231 -29.24163531 49.74717824 -29.1953125 45.578125 C-29.18886719 44.55332031 -29.18242187 43.52851562 -29.17578125 42.47265625 C-29.15902344 41.40917969 -29.14226562 40.34570312 -29.125 39.25 C-29.11597656 38.17105469 -29.10695313 37.09210938 -29.09765625 35.98046875 C-29.07411305 33.32008722 -29.04122799 30.66015664 -29 28 C-29.66 27.67 -30.32 27.34 -31 27 C-30.34 27 -29.68 27 -29 27 C-29 22.71 -29 18.42 -29 14 C-37.91 14 -46.82 14 -56 14 C-56 13.67 -56 13.34 -56 13 C-55.33458694 13.00666183 -54.66917389 13.01332367 -53.9835968 13.02018738 C-47.05690341 13.08656679 -40.1303004 13.13181163 -33.20336914 13.16479492 C-30.61837087 13.17987962 -28.03339818 13.20035002 -25.44848633 13.22631836 C-21.7325204 13.26271442 -18.01689293 13.27972985 -14.30078125 13.29296875 C-13.14540359 13.30845261 -11.99002594 13.32393646 -10.79963684 13.33988953 C-9.17852242 13.34022942 -9.17852242 13.34022942 -7.5246582 13.34057617 C-6.10235649 13.35056892 -6.10235649 13.35056892 -4.65132141 13.36076355 C-1.46964514 12.92783496 0.41234214 11.87039723 3 10 C4.07642709 8.11149645 4.07642709 8.11149645 4 6 C2.99392854 3.36873617 2.00773956 2.00773956 0 0 Z " fill="#2A2A2A" transform="translate(296,37)"/>
<path d="M0 0 C0.66 0 1.32 0 2 0 C3.03271642 2.09836004 4.05083717 4.20390891 5.0625 6.3125 C5.63097656 7.48425781 6.19945312 8.65601563 6.78515625 9.86328125 C8 13 8 13 7 16 C6.16180842 14.37750059 5.3295884 12.75191503 4.5 11.125 C4.0359375 10.22007813 3.571875 9.31515625 3.09375 8.3828125 C2 6 2 6 2 4 C-1.12474627 5.63473516 -1.12474627 5.63473516 -1.6875 8.125 C-1.790625 8.74375 -1.89375 9.3625 -2 10 C-2.66 10 -3.32 10 -4 10 C-4.07476562 10.55945312 -4.14953125 11.11890625 -4.2265625 11.6953125 C-5.34159822 18.49484403 -7.72887022 24.29905229 -10.53515625 30.5703125 C-12.40776784 34.95472044 -13.79019483 39.3942505 -15 44 C-15.66 44 -16.32 44 -17 44 C-17.08636719 44.59425781 -17.17273438 45.18851563 -17.26171875 45.80078125 C-18.28597407 51.84294797 -20.11158149 56.94677033 -22.78125 62.45703125 C-23.96915238 64.93563525 -25.00653578 67.43815014 -26 70 C-27.24895464 66.25313608 -26.56820935 65.14873466 -25.19140625 61.50390625 C-24.77793945 60.39764893 -24.36447266 59.2913916 -23.93847656 58.15161133 C-23.4844043 56.96720459 -23.03033203 55.78279785 -22.5625 54.5625 C-21.87559082 52.74045044 -21.87559082 52.74045044 -21.17480469 50.8815918 C-18.13294958 42.85153823 -15.00282284 34.85803971 -11.77099609 26.90258789 C-9.37160743 20.99125516 -7.11181135 15.03737486 -4.98925781 9.02075195 C-3.74719815 5.59688044 -2.50227985 2.68341003 0 0 Z " fill="#282828" transform="translate(157,22)"/>
<path d="M0 0 C0.66 0 1.32 0 2 0 C2.25523437 0.92619141 2.25523437 0.92619141 2.515625 1.87109375 C3.7571645 6.20987806 5.07496865 10.35051036 7 14.4375 C9.32943343 19.46089651 10.64000825 24.64855316 12 30 C12.38994112 31.39749084 12.784825 32.79362498 13.1875 34.1875 C13.455625 35.115625 13.72375 36.04375 14 37 C18.29 37 22.58 37 27 37 C27.144375 35.783125 27.28875 34.56625 27.4375 33.3125 C27.81347252 30.14358879 28.36975549 27.15122255 29 24 C41.54 24 54.08 24 67 24 C67 24.33 67 24.66 67 25 C54.79 25 42.58 25 30 25 C30 29.29 30 33.58 30 38 C27.72979256 38.19493195 25.45879711 38.38070418 23.1875 38.5625 C21.92292969 38.66691406 20.65835938 38.77132812 19.35546875 38.87890625 C16 39 16 39 13 38 C11.75295783 35.3156889 10.69197316 32.71208377 9.6875 29.9375 C9.3877124 29.13489746 9.0879248 28.33229492 8.77905273 27.50537109 C8.15598311 25.83543297 7.53731085 24.16384813 6.92285156 22.49072266 C6.04190288 20.11309345 5.13286674 17.74871574 4.2109375 15.38671875 C3.66130303 13.96620591 3.1118169 12.54563567 2.5625 11.125 C2.30364014 10.4662085 2.04478027 9.80741699 1.77807617 9.12866211 C0.51671733 5.81278121 0 3.61464572 0 0 Z " fill="#454545" transform="translate(157,54)"/>
<path d="M0 0 C4.95 0 9.9 0 15 0 C15.33 0.99 15.66 1.98 16 3 C16.5775 3.2475 17.155 3.495 17.75 3.75 C21.47556972 5.81976095 23.50803943 8.07472279 25 12 C25.4041484 14.83715126 25.48647162 17.63659552 25.5 20.5 C25.50612305 21.22388916 25.51224609 21.94777832 25.51855469 22.69360352 C25.40059612 27.78606009 24.25690803 31.43816462 22 36 C21.34 36 20.68 36 20 36 C19.34 37.32 18.68 38.64 18 40 C17.34 40 16.68 40 16 40 C16 40.66 16 41.32 16 42 C10.6247589 44.41159466 5.82271956 44.82251004 0 44 C-2.98443587 42.6860667 -5.43570432 40.99579616 -8 39 C-8.99 38.34 -9.98 37.68 -11 37 C-10.67 35.68 -10.34 34.36 -10 33 C-9.46375 33.763125 -8.9275 34.52625 -8.375 35.3125 C-4.9262061 39.21508257 -1.61356843 40.58166744 3.375 41.875 C9.24724608 42.07749124 13.25260951 40.39791239 17.8125 36.75 C22.16110735 31.28317933 23.49943235 26.35869063 23.30078125 19.5 C22.83678628 15.6434184 21.55867826 12.55378644 20 9 C19.67 8.01 19.34 7.02 19 6 C17.16715557 4.87483915 17.16715557 4.87483915 15 4 C14.41347656 3.66355469 13.82695312 3.32710937 13.22265625 2.98046875 C10.51581954 1.786416 8.19464634 1.58533188 5.25 1.375 C3.77273438 1.26285156 3.77273438 1.26285156 2.265625 1.1484375 C1.51796875 1.09945312 0.7703125 1.05046875 0 1 C0 0.67 0 0.34 0 0 Z " fill="#424242" transform="translate(442,36)"/>
<path d="M0 0 C2.203125 0.0234375 2.203125 0.0234375 5.953125 0.3984375 C7.19810333 2.88839415 7.08246872 4.58838661 7.0859375 7.37109375 C7.08787109 8.84352539 7.08787109 8.84352539 7.08984375 10.34570312 C7.08597656 11.37373047 7.08210937 12.40175781 7.078125 13.4609375 C7.08392578 15.0087793 7.08392578 15.0087793 7.08984375 16.58789062 C7.08855469 17.56822266 7.08726562 18.54855469 7.0859375 19.55859375 C7.08480957 20.46230713 7.08368164 21.36602051 7.08251953 22.29711914 C6.953125 24.3984375 6.953125 24.3984375 5.953125 25.3984375 C3.62015067 25.43936687 1.28607275 25.44085473 -1.046875 25.3984375 C-1.376875 22.4284375 -1.706875 19.4584375 -2.046875 16.3984375 C-3.036875 17.0584375 -4.026875 17.7184375 -5.046875 18.3984375 C-3.61063405 14.08971464 -2.50084935 12.85241185 0.953125 9.3984375 C0.953125 14.3484375 0.953125 19.2984375 0.953125 24.3984375 C2.273125 24.3984375 3.593125 24.3984375 4.953125 24.3984375 C4.953125 16.8084375 4.953125 9.2184375 4.953125 1.3984375 C3.303125 1.3984375 1.653125 1.3984375 -0.046875 1.3984375 C-0.376875 2.3884375 -0.706875 3.3784375 -1.046875 4.3984375 C-1.706875 4.3984375 -2.366875 4.3984375 -3.046875 4.3984375 C-3.706875 6.3784375 -4.366875 8.3584375 -5.046875 10.3984375 C-7.046875 10.3984375 -7.046875 10.3984375 -8.734375 9.1484375 C-10.046875 7.3984375 -10.046875 7.3984375 -9.734375 5.2109375 C-9.3940625 4.31375 -9.3940625 4.31375 -9.046875 3.3984375 C-8.056875 4.3884375 -7.066875 5.3784375 -6.046875 6.3984375 C-5.551875 5.4084375 -5.056875 4.4184375 -4.546875 3.3984375 C-2.046875 0.3984375 -2.046875 0.3984375 0 0 Z " fill="#737373" transform="translate(568.046875,116.6015625)"/>
<path d="M0 0 C0.66 0.33 1.32 0.66 2 1 C1.50628906 1.38671875 1.01257813 1.7734375 0.50390625 2.171875 C-0.13675781 2.69265625 -0.77742187 3.2134375 -1.4375 3.75 C-2.07558594 4.26046875 -2.71367188 4.7709375 -3.37109375 5.296875 C-5.18810554 7.19667629 -5.60423197 8.43586908 -6 11 C-5.01 11.33 -4.02 11.66 -3 12 C-3 12.99 -3 13.98 -3 15 C-0.36 14.67 2.28 14.34 5 14 C5 13.01 5 12.02 5 11 C10 9 10 9 12.5 8.125 C15.1683284 7.05880548 15.1683284 7.05880548 17.625 4.8125 C18.40875 4.214375 19.1925 3.61625 20 3 C20.99 3.33 21.98 3.66 23 4 C19.97046757 6.16337502 16.92450814 8.30239716 13.875 10.4375 C13.0190625 11.04916016 12.163125 11.66082031 11.28125 12.29101562 C3.19441641 17.92069593 3.19441641 17.92069593 -2 18 C-4.8125 17.1875 -4.8125 17.1875 -7 16 C-8.45147903 13.09704195 -8.37239025 11.22738221 -8 8 C-5.57184111 4.58745237 -3.48478855 2.32319237 0 0 Z " fill="#346C6C" transform="translate(641,83)"/>
<path d="M0 0 C3.625 -0.1875 3.625 -0.1875 7 0 C7 0.33 7 0.66 7 1 C6.06414062 1.05285156 5.12828125 1.10570313 4.1640625 1.16015625 C0.84169129 1.66322063 0.84169129 1.66322063 -0.5390625 4.37109375 C-0.89742188 5.38300781 -1.25578125 6.39492187 -1.625 7.4375 C-2.02332031 8.51386719 -2.42164063 9.59023437 -2.83203125 10.69921875 C-3.21746094 11.78847656 -3.60289062 12.87773437 -4 14 C-4.76252974 15.9199853 -5.53253429 17.83703146 -6.3125 19.75 C-6.87590512 21.16630695 -7.43877475 22.58282785 -8 24 C-6.35 24 -4.7 24 -3 24 C-2.67 22.35 -2.34 20.7 -2 19 C1.63 19 5.26 19 9 19 C9.66 20.65 10.32 22.3 11 24 C12.32 23.67 13.64 23.34 15 23 C14.67 21.02 14.34 19.04 14 17 C16.5654594 19.5654594 16.54046087 21.47686668 17 25 C13.625 25.1875 13.625 25.1875 10 25 C9.34 24.01 8.68 23.02 8 22 C5.80545319 21.42006301 5.80545319 21.42006301 3.375 21.3125 C2.55773437 21.24675781 1.74046875 21.18101562 0.8984375 21.11328125 C0.27195312 21.07589844 -0.35453125 21.03851563 -1 21 C-1.33 22.32 -1.66 23.64 -2 25 C-4.31 25 -6.62 25 -9 25 C-10 23 -10 23 -9.41088867 20.98461914 C-8.91939331 19.77213501 -8.91939331 19.77213501 -8.41796875 18.53515625 C-8.06283203 17.65279297 -7.70769531 16.77042969 -7.34179688 15.86132812 C-6.96087891 14.93771484 -6.57996094 14.01410156 -6.1875 13.0625 C-5.81818359 12.14275391 -5.44886719 11.22300781 -5.06835938 10.27539062 C-3.5749027 6.59939583 -2.2087481 3.31312215 0 0 Z " fill="#454545" transform="translate(451,117)"/>
<path d="M0 0 C0.66 0.33 1.32 0.66 2 1 C0.98679687 1.68835937 0.98679687 1.68835937 -0.046875 2.390625 C-0.93890625 3.00421875 -1.8309375 3.6178125 -2.75 4.25 C-3.63171875 4.85328125 -4.5134375 5.4565625 -5.421875 6.078125 C-7.85433494 7.89141332 -9.91728069 9.80049269 -12 12 C-9.85627271 13.73183209 -7.7105322 15.46101679 -5.5625 17.1875 C-4.90032471 17.71980225 -4.23814941 18.25210449 -3.5559082 18.80053711 C2.38875236 23.55640411 8.43434499 28.17270251 14.53881836 32.72143555 C15.56567749 33.49547729 15.56567749 33.49547729 16.61328125 34.28515625 C17.21954346 34.73769775 17.82580566 35.19023926 18.45043945 35.65649414 C20 37 20 37 22 40 C19.25108861 38.70526387 16.88918096 37.27678332 14.48828125 35.41796875 C13.82046631 34.90387451 13.15265137 34.38978027 12.46459961 33.86010742 C11.75440674 33.30814697 11.04421387 32.75618652 10.3125 32.1875 C8.79955726 31.02073206 7.2865339 29.85406866 5.7734375 28.6875 C4.99323242 28.08421875 4.21302734 27.4809375 3.40917969 26.859375 C-0.57052488 23.78788838 -4.56721287 20.73867057 -8.5625 17.6875 C-10.00138168 16.58734368 -11.44019121 15.48709299 -12.87890625 14.38671875 C-13.90886719 13.59910156 -14.93882813 12.81148437 -16 12 C-12.67900202 8.50357589 -9.38093393 5.71148051 -5.3125 3.125 C-4.35988281 2.50882813 -3.40726563 1.89265625 -2.42578125 1.2578125 C-1.62527344 0.84273437 -0.82476562 0.42765625 0 0 Z " fill="#143638" transform="translate(44,48)"/>
<path d="M0 0 C4.35135393 1.48268356 7.59870821 3.7300545 11.25 6.5 C11.79140625 6.90347656 12.3328125 7.30695312 12.890625 7.72265625 C16.86761192 10.73522384 16.86761192 10.73522384 18 13 C18.35147861 16.72567322 18.55603908 19.11800697 16.52734375 22.3359375 C13.13481312 25.91198988 9.30962993 28.54212236 5.25 31.3125 C4.45722656 31.86228516 3.66445313 32.41207031 2.84765625 32.97851562 C0.90294598 34.32575467 -1.04623278 35.66594531 -3 37 C-3.66 36.67 -4.32 36.34 -5 36 C-3.37982158 34.66081194 -1.75370657 33.3288031 -0.125 32 C0.77992188 31.2575 1.68484375 30.515 2.6171875 29.75 C5 28 5 28 7 28 C7 27.34 7 26.68 7 26 C9.31 24.68 11.62 23.36 14 22 C14.061875 20.783125 14.12375 19.56625 14.1875 18.3125 C14.22230469 17.62800781 14.25710938 16.94351563 14.29296875 16.23828125 C13.72554163 11.90313807 11.62326381 9.50871315 8.30078125 6.796875 C6.82158203 5.78367187 6.82158203 5.78367187 5.3125 4.75 C3.52842876 3.51896771 1.75350521 2.27419394 0 1 C0 0.67 0 0.34 0 0 Z " fill="#2F6667" transform="translate(677,43)"/>
<path d="M0 0 C3.41035476 0.95172691 5.7834243 1.82568297 8.5625 4.0625 C11.14737578 6.11714485 12.76449482 6.63022798 16 7 C16.33 7.99 16.66 8.98 17 10 C19.97 10.495 19.97 10.495 23 11 C23 10.34 23 9.68 23 9 C23.66 9 24.32 9 25 9 C25 6.69 25 4.38 25 2 C25.66 2 26.32 2 27 2 C27.61363636 10.13068182 27.61363636 10.13068182 25.5 13.125 C21.86239097 14.39816316 18.64701703 14.00010813 15 13 C12.26242359 11.47431784 9.94456406 9.58918586 7.5625 7.5625 C6.93923828 7.05912109 6.31597656 6.55574219 5.67382812 6.03710938 C1.17577045 2.3515409 1.17577045 2.3515409 0 0 Z " fill="#4A9291" transform="translate(42,88)"/>
<path d="M0 0 C2.8515625 1.49609375 2.8515625 1.49609375 5.625 3.4375 C6.64335938 4.14777344 7.66171875 4.85804687 8.7109375 5.58984375 C14.23664516 9.6007627 19.63519047 13.77737572 25 18 C21.45696942 18 20.55055311 17.25234902 17.69140625 15.26171875 C16.86189453 14.68873047 16.03238281 14.11574219 15.17773438 13.52539062 C14.31470703 12.91888672 13.45167969 12.31238281 12.5625 11.6875 C11.70333984 11.09259766 10.84417969 10.49769531 9.95898438 9.88476562 C3.56694395 5.4465374 3.56694395 5.4465374 0.86987305 3.32226562 C-1.49273347 1.65156751 -2.89239472 1.68642918 -5.75 1.8125 C-6.54921875 1.83957031 -7.3484375 1.86664062 -8.171875 1.89453125 C-8.77515625 1.92933594 -9.3784375 1.96414062 -10 2 C-9.71717874 9.13601646 -9.71717874 9.13601646 -6 15 C-8.46800047 13.84826645 -10.04783565 12.95216435 -12 11 C-12.20146402 7.306493 -12.17353189 4.52059568 -11 1 C-7.39379164 -1.77400643 -4.25145182 -0.87450749 0 0 Z " fill="#133435" transform="translate(645,19)"/>
<path d="M0 0 C2.64 0 5.28 0 8 0 C8 0.99 8 1.98 8 3 C7.67 2.67 7.34 2.34 7 2 C5.33382885 1.95936168 3.66611905 1.957279 2 2 C2.5775 2.75023438 3.155 3.50046875 3.75 4.2734375 C8.17553787 10.37391852 10.95542447 14.57767926 10.28125 22.234375 C10.1884375 22.81703125 10.095625 23.3996875 10 24 C11.65 24 13.3 24 15 24 C14.93039062 23.38253906 14.86078125 22.76507813 14.7890625 22.12890625 C14.31545282 14.72029767 16.37866474 10.69414523 21 5 C21.33 5.66 21.66 6.32 22 7 C21.0390625 8.84765625 21.0390625 8.84765625 19.625 11.0625 C16.84139737 15.81235934 16.26015572 19.53672982 16 25 C13.69 25 11.38 25 9 25 C7.66666667 19.66666667 6.33333333 14.33333333 5 9 C4.34 9 3.68 9 3 9 C0 3.375 0 3.375 0 0 Z " fill="#424242" transform="translate(586,117)"/>
<path d="M0 0 C1.02222656 -0.00773437 2.04445313 -0.01546875 3.09765625 -0.0234375 C6.24007047 0.41745143 7.61512023 1.26982121 9.9375 3.375 C9.6075 4.695 9.2775 6.015 8.9375 7.375 C8.64875 6.735625 8.36 6.09625 8.0625 5.4375 C7.10926549 3.22293921 7.10926549 3.22293921 4.9375 2.375 C0.16142499 1.77369559 -4.56992541 1.45241344 -8.6875 4.25 C-11.60098044 8.0835269 -11.75517804 10.29525083 -11.4609375 14.99609375 C-10.950116 18.04599856 -10.09711386 20.03896187 -8.0625 22.375 C-4.77730525 23.47006492 -2.32586585 23.47460608 1.125 23.4375 C2.21167969 23.42847656 3.29835938 23.41945312 4.41796875 23.41015625 C5.24941406 23.39855469 6.08085937 23.38695312 6.9375 23.375 C6.6075 24.035 6.2775 24.695 5.9375 25.375 C4.04239301 25.45660748 2.14625496 25.51446459 0.25 25.5625 C-1.33361328 25.61470703 -1.33361328 25.61470703 -2.94921875 25.66796875 C-6.4741758 25.33626012 -8.24699596 24.48167116 -11.0625 22.375 C-13.95800431 17.98182104 -14.62128366 14.59031417 -14.0625 9.375 C-11.4703986 2.28082774 -7.43638548 -0.05640748 0 0 Z " fill="#343434" transform="translate(421.0625,116.625)"/>
<path d="M0 0 C4 0 4 0 5.6328125 1.3203125 C11.57585943 8.50797658 12.81616535 14.745738 12 24 C10.92398095 29.70290096 8.46644992 33.27929021 3.88671875 36.8125 C-1.48507687 40.19350594 -6.88694969 40.21449299 -13 40 C-12.67 39.34 -12.34 38.68 -12 38 C-9.9609375 37.7265625 -9.9609375 37.7265625 -7.375 37.625 C-1.37310969 37.14416186 1.95953311 35.2017174 6.8125 31.6875 C10.15050088 26.94402506 10.83358897 20.63714543 10 15 C8.10459429 8.57069769 5.3704761 4.9058008 0 1 C0 0.67 0 0.34 0 0 Z " fill="#252525" transform="translate(510,39)"/>
<path d="M0 0 C3.22476554 1.70963761 6.17535719 3.68776405 9 6 C9 6.33 9 6.66 9 7 C7.35 7 5.7 7 4 7 C3.67 6.34 3.34 5.68 3 5 C-0.17890804 2.99846531 -3.31253672 2.5028359 -7 2 C-7 3.65 -7 5.3 -7 7 C-6.01 7.33 -5.02 7.66 -4 8 C-4.33 9.32 -4.66 10.64 -5 12 C-4.34 12 -3.68 12 -3 12 C-3 11.01 -3 10.02 -3 9 C-2.01 9 -1.02 9 0 9 C-0.33 10.32 -0.66 11.64 -1 13 C-2.75 13.75 -2.75 13.75 -5 14 C-7.25 12.625 -7.25 12.625 -9 10 C-9.33318652 6.97008511 -9.23345896 4.03496649 -9 1 C-5.77239609 -0.61380195 -3.59420831 -0.39935648 0 0 Z " fill="#67D3D4" transform="translate(644,20)"/>
<path d="M0 0 C0.33 0 0.66 0 1 0 C1 7.59 1 15.18 1 23 C6.61 23 12.22 23 18 23 C18 21.68 18 20.36 18 19 C13.71 19 9.42 19 5 19 C5 17.35 5 15.7 5 14 C5.66 14 6.32 14 7 14 C7 14.99 7 15.98 7 17 C7.99 16.67 8.98 16.34 10 16 C17.31300813 16.31300813 17.31300813 16.31300813 19 18 C19 19.98 19 21.96 19 24 C12.73 24 6.46 24 0 24 C0 16.08 0 8.16 0 0 Z " fill="#A4A4A4" transform="translate(517,118)"/>
<path d="M0 0 C2.6956957 1.54039754 5.1399776 3.1126649 7.5625 5.0625 C9.67095905 6.73845463 11.55360505 7.91271336 14 9 C12.35 10.32 10.7 11.64 9 13 C8.34 12.67 7.68 12.34 7 12 C7 12.66 7 13.32 7 14 C5.68 13.67 4.36 13.34 3 13 C1.96053148 9.2319266 2 5.92250084 2 2 C1.34 2 0.68 2 0 2 C0 1.34 0 0.68 0 0 Z " fill="#5DD5D9" transform="translate(54,80)"/>
<path d="M0 0 C1.98 0 3.96 0 6 0 C5.67 2.31 5.34 4.62 5 7 C4.34 7 3.68 7 3 7 C2.67 8.32 2.34 9.64 2 11 C-0.1385485 8.8614515 -0.42655063 7.86724686 -1 5 C-1.99 5.33 -2.98 5.66 -4 6 C-4 6.66 -4 7.32 -4 8 C-4.99 7.67 -5.98 7.34 -7 7 C-6 4 -6 4 -3 2 C-2.01 2 -1.02 2 0 2 C0 1.34 0 0.68 0 0 Z " fill="#5BE1E8" transform="translate(62,23)"/>
<path d="M0 0 C0.90492188 0.02320313 1.80984375 0.04640625 2.7421875 0.0703125 C5.1553125 0.1321875 5.1553125 0.1321875 7.6171875 0.1953125 C7.6171875 5.1453125 7.6171875 10.0953125 7.6171875 15.1953125 C11.5771875 15.1953125 15.5371875 15.1953125 19.6171875 15.1953125 C19.6171875 13.5453125 19.6171875 11.8953125 19.6171875 10.1953125 C20.2771875 9.8653125 20.9371875 9.5353125 21.6171875 9.1953125 C21.2871875 11.5053125 20.9571875 13.8153125 20.6171875 16.1953125 C15.66098837 17.84737888 10.7768531 16.69463498 5.6171875 16.1953125 C5.2871875 11.5753125 4.9571875 6.9553125 4.6171875 2.1953125 C1.6471875 2.1953125 -1.3228125 2.1953125 -4.3828125 2.1953125 C-2.3828125 0.1953125 -2.3828125 0.1953125 0 0 Z " fill="#494949" transform="translate(392.3828125,35.8046875)"/>
<path d="M0 0 C1.27875 -0.061875 2.5575 -0.12375 3.875 -0.1875 C4.95394531 -0.23970703 4.95394531 -0.23970703 6.0546875 -0.29296875 C6.69664062 -0.19628906 7.33859375 -0.09960938 8 0 C8.66 0.99 9.32 1.98 10 3 C9.67 3.99 9.34 4.98 9 6 C8.34 4.35 7.68 2.7 7 1 C5.02 1 3.04 1 1 1 C0.8453125 2.03640625 0.8453125 2.03640625 0.6875 3.09375 C-0.39123101 7.65384016 -2.58447496 11.64497733 -4.625 15.84375 C-5.83686363 18.62552787 -6.5544672 21.01493023 -7 24 C-5.02 23.34 -3.04 22.68 -1 22 C-1.33 22.99 -1.66 23.98 -2 25 C-4.31 25 -6.62 25 -9 25 C-8.48377778 18.89546742 -6.51417404 14.08521586 -3.9375 8.5625 C-3.37192383 7.32209961 -3.37192383 7.32209961 -2.79492188 6.05664062 C-1.87125642 4.03393021 -0.93953046 2.01537743 0 0 Z " fill="#363636" transform="translate(379,117)"/>
<path d="M0 0 C0.33 0 0.66 0 1 0 C1 4.95 1 9.9 1 15 C2.32 15 3.64 15 5 15 C5 12.03 5 9.06 5 6 C5.33 6 5.66 6 6 6 C6.19412181 7.47831221 6.38012131 8.95769316 6.5625 10.4375 C6.66691406 11.26121094 6.77132812 12.08492187 6.87890625 12.93359375 C6.91886719 13.61550781 6.95882812 14.29742187 7 15 C6 16 6 16 2.4375 16.0625 C1.303125 16.041875 0.16875 16.02125 -1 16 C-1.33 13.03 -1.66 10.06 -2 7 C-2.99 7.66 -3.98 8.32 -5 9 C-3.75471468 5.55151758 -2.38532951 2.80016942 0 0 Z " fill="#929292" transform="translate(568,126)"/>
<path d="M0 0 C3.625 0.25 3.625 0.25 5.32421875 1.484375 C7.39294872 4.29238085 7.10071951 6.77062501 6.96875 10.15234375 C6.625 12.25 6.625 12.25 5.0625 14.3125 C1.85857752 15.54477788 -0.96879835 15.30961847 -4.375 15.25 C-4.40185412 12.93756208 -4.42132841 10.6250373 -4.4375 8.3125 C-4.44910156 7.02472656 -4.46070313 5.73695312 -4.47265625 4.41015625 C-4.34632107 0.32194971 -4.34632107 0.32194971 0 0 Z M-2.375 1.25 C-3.62238223 2.27621107 -3.62238223 2.27621107 -3.5078125 4.46484375 C-3.50523437 5.36332031 -3.50265625 6.26179687 -3.5 7.1875 C-3.50257813 8.08339844 -3.50515625 8.97929687 -3.5078125 9.90234375 C-3.52921413 12.27155555 -3.52921413 12.27155555 -2.375 14.25 C0.99962715 13.70276317 2.70735 13.1951 5.625 11.25 C5.37331259 6.29591382 5.37331259 6.29591382 2.75 2.3125 C0.57375678 1.0263932 0.57375678 1.0263932 -2.375 1.25 Z " fill="#515151" transform="translate(490.375,121.75)"/>
<path d="M0 0 C1.4375 2.0625 1.4375 2.0625 2 4 C1.46375 3.67 0.9275 3.34 0.375 3 C-2.5929092 1.75035402 -4.80799279 1.72243416 -8 2 C-10.31563087 3.88500271 -10.31563087 3.88500271 -10.25 7 C-10.31563087 10.11499729 -10.31563087 10.11499729 -8 12 C-3.66356399 12.31537716 -1.67346771 12.44897847 2 10 C1.375 11.9375 1.375 11.9375 0 14 C-3.665772 15.221924 -5.31360508 15.33557085 -8.8125 13.625 C-11 12 -11 12 -12 11 C-12.36090226 3.54135338 -12.36090226 3.54135338 -10 0 C-6.21603308 -1.26132231 -3.85909105 -0.91214879 0 0 Z " fill="#393939" transform="translate(107,78)"/>
<path d="M0 0 C1.32 0 2.64 0 4 0 C6.34168764 3.51253146 6.49623677 4.86469356 6 9 C4.20006226 11.69990662 2.916227 13.5418865 0 15 C-1.9593604 15.08510205 -3.92162794 15.10717656 -5.8828125 15.09765625 C-7.04941406 15.09443359 -8.21601563 15.09121094 -9.41796875 15.08789062 C-10.64128906 15.07951172 -11.86460937 15.07113281 -13.125 15.0625 C-14.35605469 15.05798828 -15.58710938 15.05347656 -16.85546875 15.04882812 C-19.90369392 15.0370133 -22.95182314 15.02054028 -26 15 C-26 14.67 -26 14.34 -26 14 C-25.29915283 13.98541748 -24.59830566 13.97083496 -23.8762207 13.95581055 C-20.68776991 13.88114513 -17.50034487 13.78454525 -14.3125 13.6875 C-13.20970703 13.66494141 -12.10691406 13.64238281 -10.97070312 13.61914062 C-9.90400391 13.58369141 -8.83730469 13.54824219 -7.73828125 13.51171875 C-6.75899658 13.48553467 -5.77971191 13.45935059 -4.77075195 13.43237305 C-1.55759748 12.93096353 0.37672331 11.89489602 3 10 C4.07642709 8.11149645 4.07642709 8.11149645 4 6 C2.99392854 3.36873617 2.00773956 2.00773956 0 0 Z " fill="#484848" transform="translate(296,37)"/>
<path d="M0 0 C3.65866294 4.32387438 5 8.34923902 5 14 C1.625 14.1875 1.625 14.1875 -2 14 C-2.66 13.01 -3.32 12.02 -4 11 C-6.20725073 10.63637182 -6.20725073 10.63637182 -8.625 10.8125 C-9.44226563 10.83957031 -10.25953125 10.86664063 -11.1015625 10.89453125 C-11.72804688 10.92933594 -12.35453125 10.96414062 -13 11 C-13 10.01 -13 9.02 -13 8 C-9.37 8 -5.74 8 -2 8 C-1.67 9.65 -1.34 11.3 -1 13 C0.65 13 2.3 13 4 13 C3.71125 12.39671875 3.4225 11.7934375 3.125 11.171875 C2.75375 10.37265625 2.3825 9.5734375 2 8.75 C1.62875 7.96109375 1.2575 7.1721875 0.875 6.359375 C0 4 0 4 0 0 Z " fill="#515151" transform="translate(391,128)"/>
<path d="M0 0 C4.95 0 9.9 0 15 0 C15.33 0.99 15.66 1.98 16 3 C16.5775 3.2475 17.155 3.495 17.75 3.75 C21.09955434 5.61086352 23.39346453 8.52284104 25 12 C24.63671875 14.2265625 24.63671875 14.2265625 24 16 C24 15.01 24 14.02 24 13 C23.34 13 22.68 13 22 13 C19 8.61538462 19 8.61538462 19 6 C18.13375 5.566875 18.13375 5.566875 17.25 5.125 C15.88698404 4.44349202 14.53757153 3.73227825 13.21875 2.96875 C10.51477846 1.78814271 8.18689272 1.58477805 5.25 1.375 C3.77273438 1.26285156 3.77273438 1.26285156 2.265625 1.1484375 C1.51796875 1.09945312 0.7703125 1.05046875 0 1 C0 0.67 0 0.34 0 0 Z " fill="#525252" transform="translate(442,36)"/>
<path d="M0 0 C2.16643817 7.70367646 -2.54651521 15.56071899 -5.81640625 22.45703125 C-6.97231423 24.9405167 -8.00579944 27.44806585 -9 30 C-10.30744627 26.07766119 -9.36717438 24.6321993 -7.91015625 20.80078125 C-7.45576172 19.59228516 -7.00136719 18.38378906 -6.53320312 17.13867188 C-6.04316812 15.86320463 -5.55293113 14.58781498 -5.0625 13.3125 C-4.5753229 12.02571173 -4.08898441 10.73860562 -3.60351562 9.45117188 C-2.41057302 6.29755134 -1.20910009 3.1474535 0 0 Z " fill="#232323" transform="translate(140,62)"/>
<path d="M0 0 C0.99 0.33 1.98 0.66 3 1 C-2.61 4.96 -8.22 8.92 -14 13 C-14.66 12.67 -15.32 12.34 -16 12 C-15.8125 10.125 -15.8125 10.125 -15 8 C-12.75 6.875 -12.75 6.875 -10 6 C-6.87290785 4.90551775 -4.95032284 3.95860236 -2.375 1.8125 C-1.59125 1.214375 -0.8075 0.61625 0 0 Z " fill="#357577" transform="translate(661,86)"/>
<path d="M0 0 C2.8125 0.4375 2.8125 0.4375 4.8125 2.4375 C3.74 2.581875 2.6675 2.72625 1.5625 2.875 C-1.10412949 3.27499442 -3.60149729 3.71341924 -6.1875 4.4375 C-5.72927532 7.90691546 -5.29618317 11.11145049 -4.1875 14.4375 C-5.1775 14.1075 -6.1675 13.7775 -7.1875 13.4375 C-8.63180855 10.54888291 -8.56438506 8.64102299 -8.1875 5.4375 C-5.63930098 1.98993662 -4.2925329 0.58917118 0 0 Z " fill="#343434" transform="translate(608.1875,76.5625)"/>
<path d="M0 0 C0.66 0.33 1.32 0.66 2 1 C0.98679687 1.68835937 0.98679687 1.68835937 -0.046875 2.390625 C-0.93890625 3.00421875 -1.8309375 3.6178125 -2.75 4.25 C-3.63171875 4.85328125 -4.5134375 5.4565625 -5.421875 6.078125 C-7.85433494 7.89141332 -9.91728069 9.80049269 -12 12 C-11.34 13.32 -10.68 14.64 -10 16 C-11.98 14.68 -13.96 13.36 -16 12 C-11.53122354 6.91484058 -6.00190775 3.11210031 0 0 Z " fill="#173D3F" transform="translate(44,48)"/>
<path d="M0 0 C0.33 0 0.66 0 1 0 C1.12117188 0.61488281 1.24234375 1.22976562 1.3671875 1.86328125 C1.53476562 2.67152344 1.70234375 3.47976562 1.875 4.3125 C2.03742188 5.11300781 2.19984375 5.91351563 2.3671875 6.73828125 C2.94478999 9.25301118 2.94478999 9.25301118 5 12 C8.28519475 13.09506492 10.73663415 13.09960608 14.1875 13.0625 C15.27417969 13.05347656 16.36085938 13.04445312 17.48046875 13.03515625 C18.31191406 13.02355469 19.14335937 13.01195312 20 13 C19.67 13.66 19.34 14.32 19 15 C17.10489301 15.08160748 15.20875496 15.13946459 13.3125 15.1875 C11.72888672 15.23970703 11.72888672 15.23970703 10.11328125 15.29296875 C6.58163401 14.96063055 4.81744571 14.11678496 2 12 C-0.13586678 8.79619983 -0.23132175 7.98060033 -0.125 4.3125 C-0.10695313 3.50425781 -0.08890625 2.69601563 -0.0703125 1.86328125 C-0.04710937 1.24839844 -0.02390625 0.63351563 0 0 Z " fill="#4F4F4F" transform="translate(408,127)"/>
<path d="M0 0 C0 9.9 0 19.8 0 30 C-1.95609885 26.08780231 -2.24163531 24.74717824 -2.1953125 20.578125 C-2.18886719 19.55332031 -2.18242187 18.52851562 -2.17578125 17.47265625 C-2.15902344 16.40917969 -2.14226562 15.34570312 -2.125 14.25 C-2.11597656 13.17105469 -2.10695313 12.09210938 -2.09765625 10.98046875 C-2.07411305 8.32008722 -2.04122799 5.66015664 -2 3 C-2.66 2.67 -3.32 2.34 -4 2 C-1 0 -1 0 0 0 Z " fill="#111111" transform="translate(269,62)"/>
<path d="M0 0 C0.33 0.66 0.66 1.32 1 2 C-1.89629188 4.89629188 -4.25280799 7.25131039 -8 9 C-8 9.66 -8 10.32 -8 11 C-7.34 11 -6.68 11 -6 11 C-6.33 11.66 -6.66 12.32 -7 13 C-7.99 13.33 -8.98 13.66 -10 14 C-10.3125 11.25 -10.3125 11.25 -10 8 C-7.8125 5.875 -7.8125 5.875 -5 4 C-4.071875 3.2575 -3.14375 2.515 -2.1875 1.75 C-1.1046875 0.88375 -1.1046875 0.88375 0 0 Z " fill="#5DCCCF" transform="translate(661,70)"/>
<path d="M0 0 C0.66 0 1.32 0 2 0 C2 0.66 2 1.32 2 2 C1.01 2.495 1.01 2.495 0 3 C-0.65555119 5.52733235 -0.65555119 5.52733235 -1 8 C-0.01 8 0.98 8 2 8 C3.4606285 10.64738916 4 11.89448334 4 15 C1.67241689 14.06896676 0.25642868 13.34617872 -1.25 11.3125 C-2.28984508 8.10631102 -2.24777051 5.34490193 -2 2 C-1.34 1.34 -0.68 0.68 0 0 Z " fill="#509B9F" transform="translate(12,53)"/>
<path d="M0 0 C0.66 0 1.32 0 2 0 C3.03271642 2.09836004 4.05083717 4.20390891 5.0625 6.3125 C5.91521484 8.07013672 5.91521484 8.07013672 6.78515625 9.86328125 C8 13 8 13 7 16 C6.16180842 14.37750059 5.3295884 12.75191503 4.5 11.125 C4.0359375 10.22007813 3.571875 9.31515625 3.09375 8.3828125 C2 6 2 6 2 4 C1.01 4.33 0.02 4.66 -1 5 C-0.67 3.35 -0.34 1.7 0 0 Z " fill="#606060" transform="translate(157,22)"/>
<path d="M0 0 C0.66 0 1.32 0 2 0 C2 0.99 2 1.98 2 3 C2.99 2.67 3.98 2.34 5 2 C7.76320278 2.06988645 10.2582798 2.51356577 13 3 C13.33 3.66 13.66 4.32 14 5 C9.38 5 4.76 5 0 5 C0 3.35 0 1.7 0 0 Z " fill="#3A3A3A" transform="translate(522,132)"/>
<path d="M0 0 C4 0 4 0 5.6328125 1.25 C9.44147737 5.71670644 10.98451194 9.21171805 12 15 C11.34 15 10.68 15 10 15 C9.78085937 14.40832031 9.56171875 13.81664062 9.3359375 13.20703125 C7.06626749 7.55130882 4.91770011 4.57650917 0 1 C0 0.67 0 0.34 0 0 Z " fill="#323232" transform="translate(510,39)"/>
<path d="M0 0 C1.33333333 1.33333333 2.66666667 2.66666667 4 4 C5.11375 5.051875 5.11375 5.051875 6.25 6.125 C8 8 8 8 8 10 C6.125 9.6875 6.125 9.6875 4 9 C3.34 8.01 2.68 7.02 2 6 C1.67 7.65 1.34 9.3 1 11 C0.67 11 0.34 11 0 11 C0 7.37 0 3.74 0 0 Z " fill="#323232" transform="translate(555,127)"/>
<path d="M0 0 C-2.25740623 2.33524782 -4.2805761 4.18705073 -7 6 C-7.99 6 -8.98 6 -10 6 C-10 3 -10 3 -8.9375 1.3125 C-6.02679298 -0.65926927 -3.41970529 -0.19356822 0 0 Z " fill="#4A9C9D" transform="translate(672,80)"/>
<path d="M0 0 C2.97 0.495 2.97 0.495 6 1 C6 1.99 6 2.98 6 4 C7.65 4 9.3 4 11 4 C11.66 5.65 12.32 7.3 13 9 C10.525 8.01 10.525 8.01 8 7 C8 6.34 8 5.68 8 5 C7.4225 4.9175 6.845 4.835 6.25 4.75 C3.3840696 3.79468987 2.0009236 2.21530827 0 0 Z " fill="#295C5C" transform="translate(639,34)"/>
<path d="M0 0 C3.05939031 2.94172145 5.80958875 6.07030597 8.53515625 9.31640625 C9.9594908 10.95344142 11.4477939 12.48464152 13 14 C7.17906949 12.1705647 3.22845629 8.09756256 0 3 C0 2.01 0 1.02 0 0 Z " fill="#3A3A3A" transform="translate(419,75)"/>
<path d="M0 0 C5.3063461 1.48084077 9.4543455 3.35030658 12.3125 8.25 C12.539375 8.8275 12.76625 9.405 13 10 C9.74035658 8.51222697 7.06830707 6.64333184 4.25 4.4375 C3.45078125 3.81746094 2.6515625 3.19742188 1.828125 2.55859375 C1.22484375 2.04425781 0.6215625 1.52992187 0 1 C0 0.67 0 0.34 0 0 Z " fill="#183B3C" transform="translate(42,88)"/>
<path d="M0 0 C3.63 0 7.26 0 11 0 C11.33 1.65 11.66 3.3 12 5 C11.01 5.495 11.01 5.495 10 6 C9.34 5.67 8.68 5.34 8 5 C8 5.66 8 6.32 8 7 C7.01 7 6.02 7 5 7 C5 6.34 5 5.68 5 5 C6.65 4.67 8.3 4.34 10 4 C10 3.01 10 2.02 10 1 C6.7 1 3.4 1 0 1 C0 0.67 0 0.34 0 0 Z " fill="#898989" transform="translate(523,127)"/>
<path d="M0 0 C1.35304209 4.05912626 0.15216503 5.77149591 -1.4375 9.6875 C-2.14712891 11.45673828 -2.14712891 11.45673828 -2.87109375 13.26171875 C-3.24363281 14.16535156 -3.61617188 15.06898437 -4 16 C-4.33 16 -4.66 16 -5 16 C-5 14.02 -5 12.04 -5 10 C-4.34 10 -3.68 10 -3 10 C-2.87625 9.0925 -2.7525 8.185 -2.625 7.25 C-2.07890323 4.41029677 -1.42736197 2.47409409 0 0 Z " fill="#0E0E0E" transform="translate(418,38)"/>
<path d="M0 0 C2.5654594 2.5654594 2.54046087 4.47686668 3 8 C1.02 8 -0.96 8 -3 8 C-1.125 2.25 -1.125 2.25 0 0 Z M0 4 C0 7 0 7 0 7 Z " fill="#4D4D4D" transform="translate(383,124)"/>
<path d="M0 0 C1.9375 0.8125 1.9375 0.8125 4 2 C4.33 2.99 4.66 3.98 5 5 C4.34 5 3.68 5 3 5 C2.67 5.99 2.34 6.98 2 8 C-1.0625 9.1875 -1.0625 9.1875 -4 10 C-3.175 9.236875 -2.35 8.47375 -1.5 7.6875 C1.34055197 5.24565858 1.34055197 5.24565858 1 2 C0.67 1.34 0.34 0.68 0 0 Z " fill="#091E20" transform="translate(670,56)"/>
<path d="M0 0 C3.41021743 0.78697325 6.68885166 1.87119943 10 3 C10 4.32 10 5.64 10 7 C5.56541027 5.6062718 3.12621626 3.39417765 0 0 Z " fill="#265656" transform="translate(660,49)"/>
<path d="M0 0 C5.32697239 1.45281065 8.36402802 5.08111378 12 9 C11.67 9.66 11.34 10.32 11 11 C9.16365304 9.35742342 7.3308593 7.71117305 5.5 6.0625 C4.97535156 5.59392578 4.45070313 5.12535156 3.91015625 4.64257812 C2.5878256 3.44904592 1.29166061 2.22665821 0 1 C0 0.67 0 0.34 0 0 Z " fill="#4A4A4A" transform="translate(463,26)"/>
<path d="M0 0 C0.66 0 1.32 0 2 0 C2 4.29 2 8.58 2 13 C1.67 13 1.34 13 1 13 C0.67 10.03 0.34 7.06 0 4 C-0.99 4.66 -1.98 5.32 -3 6 C-1.125 1.125 -1.125 1.125 0 0 Z " fill="#262626" transform="translate(566,129)"/>
<path d="M0 0 C0.66 0 1.32 0 2 0 C2.66 2.31 3.32 4.62 4 7 C2.02 7 0.04 7 -2 7 C-1.125 1.125 -1.125 1.125 0 0 Z M0 3 C-0.33 3.99 -0.66 4.98 -1 6 C-0.01 6 0.98 6 2 6 C1.67 5.01 1.34 4.02 1 3 C0.67 3 0.34 3 0 3 Z " fill="#555555" transform="translate(454,125)"/>
<path d="M0 0 C0.33 0.66 0.66 1.32 1 2 C0.06553465 4.03144641 -0.93224776 6.03533587 -2 8 C-4 8 -4 8 -5.6875 6.75 C-7 5 -7 5 -6.6875 2.8125 C-6.460625 2.214375 -6.23375 1.61625 -6 1 C-5.01 1.99 -4.02 2.98 -3 4 C-2.01 2.68 -1.02 1.36 0 0 Z " fill="#313131" transform="translate(565,119)"/>
<path d="M0 0 C0.33 0 0.66 0 1 0 C1 4.62 1 9.24 1 14 C0.01 13.01 -0.98 12.02 -2 11 C-1.85546875 8.30078125 -1.85546875 8.30078125 -1.1875 5.3125 C-0.97480469 4.31863281 -0.76210937 3.32476562 -0.54296875 2.30078125 C-0.36378906 1.54152344 -0.18460938 0.78226562 0 0 Z " fill="#111111" transform="translate(186,78)"/>
<path d="M0 0 C0.66 0.33 1.32 0.66 2 1 C2 1.66 2 2.32 2 3 C-0.25 4.6875 -0.25 4.6875 -3 6 C-4.32 5.67 -5.64 5.34 -7 5 C-4.69 3.35 -2.38 1.7 0 0 Z " fill="#5BBCC0" transform="translate(59,22)"/>
<path d="M0 0 C1.98 0 3.96 0 6 0 C6.309375 0.78375 6.61875 1.5675 6.9375 2.375 C7.92875038 4.92330128 7.92875038 4.92330128 9 7 C5.18315774 5.44499019 2.80804268 2.96404505 0 0 Z " fill="#265756" transform="translate(29,78)"/>
<path d="M0 0 C0.33 1.32 0.66 2.64 1 4 C-1.64 3.34 -4.28 2.68 -7 2 C-7.33 2.66 -7.66 3.32 -8 4 C-8.33 3.01 -8.66 2.02 -9 1 C-6.04335481 -0.4783226 -3.25770263 -0.06032783 0 0 Z " fill="#6CD5D6" transform="translate(69,21)"/>
<path d="M0 0 C0 0.99 0 1.98 0 3 C-3.29549466 4.72264494 -6.33118845 6.29445932 -10 7 C-7.0094833 3.66442368 -4.06815373 1.84916079 0 0 Z " fill="#60C3C4" transform="translate(24,46)"/>
<path d="M0 0 C-2.97 1.65 -5.94 3.3 -9 5 C-9 3.68 -9 2.36 -9 1 C-3.375 -1.125 -3.375 -1.125 0 0 Z " fill="#66CDCF" transform="translate(38,53)"/>
<path d="M0 0 C0.66 0.33 1.32 0.66 2 1 C1.67 1.66 1.34 2.32 1 3 C0.34 3 -0.32 3 -1 3 C-1.33 3.99 -1.66 4.98 -2 6 C-3.32 5.67 -4.64 5.34 -6 5 C-4.02 3.35 -2.04 1.7 0 0 Z " fill="#58B0B1" transform="translate(669,64)"/>
<path d="M0 0 C0.99 0 1.98 0 3 0 C2.67 1.32 2.34 2.64 2 4 C0.68 4.33 -0.64 4.66 -2 5 C-2.66 4.01 -3.32 3.02 -4 2 C-2.68 2.33 -1.36 2.66 0 3 C0 2.01 0 1.02 0 0 Z " fill="#57C8D0" transform="translate(641,29)"/>
<path d="M0 0 C0.928125 0.2784375 0.928125 0.2784375 1.875 0.5625 C4.04160178 1.23686176 4.04160178 1.23686176 6 0 C6 1.65 6 3.3 6 5 C3.5625 4.1875 3.5625 4.1875 1 3 C0.67 2.01 0.34 1.02 0 0 Z " fill="#65D6D7" transform="translate(25,72)"/>
<path d="M0 0 C0.66 0.33 1.32 0.66 2 1 C1.34 2.98 0.68 4.96 0 7 C-0.99 7 -1.98 7 -3 7 C-3 5.35 -3 3.7 -3 2 C-2.34 2 -1.68 2 -1 2 C-0.67 1.34 -0.34 0.68 0 0 Z " fill="#62E2E6" transform="translate(666,43)"/>
<path d="M0 0 C0.66 0.33 1.32 0.66 2 1 C1.360625 1.268125 0.72125 1.53625 0.0625 1.8125 C-2.33131686 2.88667752 -2.33131686 2.88667752 -3 6 C-4.32 5.67 -5.64 5.34 -7 5 C-4.69 3.35 -2.38 1.7 0 0 Z " fill="#6ACBCE" transform="translate(649,79)"/>
<path d="M0 0 C-0.33 1.32 -0.66 2.64 -1 4 C-2.32 4.33 -3.64 4.66 -5 5 C-5.33 4.34 -5.66 3.68 -6 3 C-5.34 3 -4.68 3 -4 3 C-4 2.34 -4 1.68 -4 1 C-2 0 -2 0 0 0 Z " fill="#60CCCB" transform="translate(37,38)"/>
</svg>
